<svg width="83" height="117" viewBox="0 0 83 117" fill="none" xmlns="http://www.w3.org/2000/svg">
<g filter="url(#filter0_d_714_4791)">
<path fill-rule="evenodd" clip-rule="evenodd" d="M37.5239 24.7494C38.4115 25.5686 39.0976 26.7751 39.4496 28.1549C39.802 29.5358 39.7793 30.9305 39.4066 32.0873C39.0402 33.2248 38.2664 34.2984 37.0069 34.6528C35.7331 35.0112 34.5219 34.4787 33.6432 33.6678C32.7556 32.8485 32.0695 31.6421 31.7175 30.2622C31.3651 28.8813 31.3878 27.4866 31.7605 26.3299C32.1269 25.1923 32.9007 24.1188 34.1602 23.7644C35.434 23.4059 36.6452 23.9384 37.5239 24.7494Z" fill="#277380"/>
<path fill-rule="evenodd" clip-rule="evenodd" d="M39.836 35.8689C40.9509 35.4963 42.1555 35.4963 43.2703 35.8689C44.5082 36.2827 45.407 37.3101 46.2413 38.6225C47.0786 39.94 47.9885 41.7771 49.1465 44.1156L50.502 46.8524C50.7989 47.4522 51.0362 47.9313 51.2071 48.3125C51.3747 48.6865 51.5195 49.053 51.5807 49.409C51.9921 51.7997 50.2095 54.0439 47.7506 54.1149C47.3854 54.1256 46.9951 54.054 46.5986 53.9626C46.1937 53.8693 45.6805 53.7299 45.04 53.5557L45.0161 53.5494C44.2467 53.3401 43.9114 53.2495 43.5795 53.183C42.2416 52.9146 40.8649 52.9146 39.527 53.183C39.1951 53.2495 38.8598 53.3401 38.0904 53.5494L38.0665 53.5557C37.4263 53.7297 36.9127 53.8693 36.5079 53.9626C36.1114 54.054 35.7211 54.1256 35.3558 54.1149C32.897 54.0439 31.1143 51.7997 31.5257 49.409C31.587 49.053 31.7317 48.6865 31.8994 48.3125C32.0702 47.9313 32.3075 47.4522 32.6045 46.8525L33.9599 44.1156C35.118 41.7771 36.0278 39.94 36.8651 38.6225C37.6993 37.3101 38.5983 36.2827 39.836 35.8689Z" fill="#277380"/>
<path fill-rule="evenodd" clip-rule="evenodd" d="M43.6549 28.1549C44.007 26.7751 44.6931 25.5686 45.5808 24.7494C46.4594 23.9384 47.6706 23.4059 48.9444 23.7644C50.2039 24.1188 50.9776 25.1923 51.3441 26.3299C51.7168 27.4866 51.7395 28.8813 51.3871 30.2622C51.0351 31.6421 50.349 32.8485 49.4614 33.6678C48.5827 34.4787 47.3714 35.0112 46.0977 34.6528C44.8382 34.2984 44.0643 33.2248 43.698 32.0873C43.3254 30.9305 43.3026 29.5358 43.6549 28.1549Z" fill="#277380"/>
<path fill-rule="evenodd" clip-rule="evenodd" d="M30.3968 35.4202C29.5613 34.8584 28.4807 34.5615 27.4176 34.9266C26.3485 35.2939 25.7094 36.1888 25.4455 37.143C25.1813 38.0985 25.2555 39.2035 25.6594 40.255C26.0636 41.307 26.7542 42.1926 27.5944 42.7576C28.4299 43.3194 29.5105 43.6163 30.5735 43.2511C31.6427 42.8838 32.2818 41.989 32.5457 41.0347C32.8099 40.0793 32.7357 38.9743 32.3317 37.9227C31.9276 36.8707 31.237 35.9852 30.3968 35.4202Z" fill="#277380"/>
<path fill-rule="evenodd" clip-rule="evenodd" d="M55.2752 34.9266C54.2122 34.5615 53.1315 34.8584 52.296 35.4202C51.4558 35.9852 50.7653 36.8707 50.3611 37.9227C49.9571 38.9743 49.883 40.0793 50.1471 41.0347C50.4111 41.989 51.0502 42.8838 52.1194 43.2511C53.1823 43.6163 54.2629 43.3194 55.0984 42.7576C55.9386 42.1926 56.6292 41.307 57.0334 40.255C57.4374 39.2035 57.5115 38.0985 57.2473 37.143C56.9835 36.1888 56.3444 35.2939 55.2752 34.9266Z" fill="#277380"/>
<path fill-rule="evenodd" clip-rule="evenodd" d="M41.3242 9.80231C25.9447 9.80231 13.4954 22.641 13.4954 38.4552C13.4954 54.2694 25.9447 67.1081 41.3242 67.1081C56.7037 67.1081 69.153 54.2694 69.153 38.4552C69.153 22.641 56.7037 9.80231 41.3242 9.80231ZM4 38.4552C4 17.2066 20.7207 0 41.3242 0C61.9277 0 78.6484 17.2066 78.6484 38.4552C78.6484 59.7038 61.9277 76.9104 41.3242 76.9104C20.7207 76.9104 4 59.7038 4 38.4552Z" fill="#277380"/>
<path d="M50.1072 73.9367L57.6785 70.0544L66.2747 86.8189L58.7033 90.7012L50.1072 73.9367Z" fill="#277380"/>
<path d="M54.7254 87.1742C54.3527 86.4474 54.6397 85.556 55.3666 85.1833L64.0997 80.7053C64.8265 80.3326 65.7179 80.6197 66.0906 81.3466L75.3123 99.331C76.9216 102.469 75.6819 106.318 72.5435 107.927C69.4051 109.537 65.5563 108.297 63.9471 105.159L54.7254 87.1742Z" fill="#277380"/>
</g>
<defs>
<filter id="filter0_d_714_4791" x="0" y="0" width="82.6484" height="116.632" filterUnits="userSpaceOnUse" color-interpolation-filters="sRGB">
<feFlood flood-opacity="0" result="BackgroundImageFix"/>
<feColorMatrix in="SourceAlpha" type="matrix" values="0 0 0 0 0 0 0 0 0 0 0 0 0 0 0 0 0 0 127 0" result="hardAlpha"/>
<feOffset dy="4"/>
<feGaussianBlur stdDeviation="2"/>
<feComposite in2="hardAlpha" operator="out"/>
<feColorMatrix type="matrix" values="0 0 0 0 0 0 0 0 0 0 0 0 0 0 0 0 0 0 0.25 0"/>
<feBlend mode="normal" in2="BackgroundImageFix" result="effect1_dropShadow_714_4791"/>
<feBlend mode="normal" in="SourceGraphic" in2="effect1_dropShadow_714_4791" result="shape"/>
</filter>
</defs>
</svg>
