<svg width="204" height="226" viewBox="0 0 204 226" fill="none" xmlns="http://www.w3.org/2000/svg">
<mask id="mask0_786_3514" style="mask-type:alpha" maskUnits="userSpaceOnUse" x="0" y="0" width="204" height="226">
<rect width="204" height="226" fill="#D9D9D9"/>
</mask>
<g mask="url(#mask0_786_3514)">
<path d="M97.562 30.0278C67.7521 30.9251 38.2384 46.6105 23.4941 71.6619C8.74993 96.7134 10.5267 130.466 29.6011 152.482C48.5353 174.342 79.4798 181.927 108.31 188.31C125.829 192.178 144.651 195.973 161.377 189.506C183.438 180.978 195.071 156.337 194.861 133.456C194.666 111.725 186.26 80.1359 174.256 61.4998C160.173 39.5992 122.577 29.279 97.562 30.0278Z" fill="#FEB941" fill-opacity="0.3"/>
<path d="M153.134 48.9767C128.923 34.1631 98.3196 28.612 70.5562 35.8679C42.7928 43.1238 18.6258 63.6577 9.51967 89.9708C0.413562 116.284 7.59049 147.58 28.6361 166.312C42.8386 178.94 61.8256 185.358 80.7178 189.395C99.61 193.431 119.005 195.438 137.512 200.848C145.45 203.177 153.353 206.142 161.665 206.338C175.721 206.658 189.14 198.614 197.175 187.454C205.21 176.295 208.387 162.421 208.58 148.859C209.199 108.46 188.783 70.8135 153.134 48.9767Z" stroke="#C3682A" stroke-width="0.9" stroke-miterlimit="10"/>
<path d="M143.81 144.348C138.837 143.53 133.73 144.303 129.285 146.546C124.84 148.789 121.308 152.376 119.24 156.747C116.599 162.714 117.288 170.328 122.102 174.985C125.548 178.313 130.62 179.773 135.518 179.715C144.403 179.631 156.06 173.144 159.885 165.209C164.348 155.923 152.705 146.01 143.825 144.341" fill="#277380"/>
<path d="M88.0701 24.1864C93.0269 28.3412 92.8877 36.1988 89.1116 41.2985C85.3355 46.3983 78.8972 49.0823 72.468 50.3948C66.5947 51.5488 59.6934 51.4715 55.5696 46.6182C52.0547 42.4958 50.9696 35.6585 54.0783 31.1104C59.675 22.8977 79.8153 17.2722 88.0701 24.1864Z" stroke="#C3682A" stroke-width="1.3" stroke-miterlimit="10" stroke-dasharray="2.23 2.23"/>
</g>
</svg>
