<svg width="187" height="54" viewBox="0 0 187 54" fill="none" xmlns="http://www.w3.org/2000/svg">
<g filter="url(#filter0_d_735_3989)">
<path fill-rule="evenodd" clip-rule="evenodd" d="M83.2767 10.473C83.6523 10.8197 83.9427 11.3302 84.0916 11.9141C84.2407 12.4984 84.2311 13.0886 84.0734 13.5781C83.9183 14.0595 83.5909 14.5138 83.058 14.6637C82.5189 14.8154 82.0064 14.5901 81.6346 14.2469C81.259 13.9003 80.9687 13.3897 80.8197 12.8058C80.6706 12.2215 80.6802 11.6313 80.8379 11.1418C80.9929 10.6604 81.3204 10.2062 81.8533 10.0562C82.3924 9.90451 82.9049 10.1298 83.2767 10.473Z" fill="white"/>
<path fill-rule="evenodd" clip-rule="evenodd" d="M84.2551 15.1783C84.7269 15.0206 85.2367 15.0206 85.7084 15.1783C86.2322 15.3534 86.6126 15.7882 86.9656 16.3435C87.3199 16.901 87.7049 17.6784 88.1949 18.668L88.7685 19.8261C88.8942 20.0799 88.9946 20.2827 89.0669 20.444C89.1378 20.6022 89.1991 20.7573 89.225 20.908C89.3991 21.9196 88.6448 22.8693 87.6043 22.8993C87.4497 22.9038 87.2846 22.8735 87.1168 22.8348C86.9454 22.7954 86.7283 22.7364 86.4573 22.6627L86.4471 22.66C86.1216 22.5714 85.9797 22.5331 85.8392 22.5049C85.2731 22.3914 84.6905 22.3914 84.1244 22.5049C83.9839 22.5331 83.842 22.5714 83.5164 22.66L83.5063 22.6627C83.2354 22.7363 83.0181 22.7954 82.8468 22.8348C82.679 22.8735 82.5139 22.9038 82.3593 22.8993C81.3188 22.8693 80.5644 21.9196 80.7385 20.908C80.7645 20.7573 80.8257 20.6022 80.8966 20.444C80.9689 20.2827 81.0694 20.0799 81.195 19.8261L81.7686 18.668C82.2586 17.6784 82.6436 16.901 82.998 16.3435C83.351 15.7882 83.7314 15.3534 84.2551 15.1783Z" fill="white"/>
<path fill-rule="evenodd" clip-rule="evenodd" d="M85.8712 11.9141C86.0202 11.3302 86.3106 10.8197 86.6862 10.473C87.058 10.1298 87.5705 9.90451 88.1095 10.0562C88.6425 10.2062 88.9699 10.6604 89.125 11.1418C89.2827 11.6313 89.2923 12.2215 89.1432 12.8058C88.9942 13.3897 88.7039 13.9003 88.3283 14.2469C87.9565 14.5901 87.4439 14.8154 86.9049 14.6637C86.3719 14.5138 86.0445 14.0595 85.8895 13.5781C85.7318 13.0886 85.7222 12.4984 85.8712 11.9141Z" fill="white"/>
<path fill-rule="evenodd" clip-rule="evenodd" d="M80.261 14.9885C79.9074 14.7508 79.4501 14.6251 79.0003 14.7796C78.5479 14.935 78.2774 15.3137 78.1658 15.7175C78.054 16.1218 78.0854 16.5894 78.2563 17.0344C78.4273 17.4796 78.7196 17.8543 79.0751 18.0934C79.4286 18.3311 79.8859 18.4568 80.3358 18.3022C80.7882 18.1468 81.0586 17.7682 81.1703 17.3643C81.2821 16.96 81.2507 16.4924 81.0798 16.0475C80.9087 15.6023 80.6165 15.2276 80.261 14.9885Z" fill="white"/>
<path fill-rule="evenodd" clip-rule="evenodd" d="M90.7884 14.7796C90.3386 14.6251 89.8813 14.7508 89.5277 14.9885C89.1722 15.2276 88.88 15.6023 88.709 16.0475C88.538 16.4924 88.5066 16.96 88.6184 17.3643C88.7301 17.7682 89.0005 18.1468 89.453 18.3022C89.9028 18.4568 90.36 18.3311 90.7136 18.0934C91.0691 17.8543 91.3614 17.4796 91.5324 17.0344C91.7034 16.5894 91.7347 16.1218 91.6229 15.7175C91.5113 15.3137 91.2408 14.935 90.7884 14.7796Z" fill="white"/>
<path d="M180.546 25.961C181.169 25.961 181.688 26.1931 182.104 26.6574C182.546 27.1217 182.766 27.6679 182.766 28.296C182.766 28.9514 182.546 29.5113 182.104 29.9756C181.688 30.4125 181.169 30.631 180.546 30.631H179.572C178.689 30.631 177.858 30.4535 177.079 30.0985C176.299 29.7434 175.611 29.2655 175.014 28.6647C174.443 28.0639 173.988 27.3538 173.65 26.5345C173.313 25.7152 173.144 24.8413 173.144 23.9127V14.8594H171.819C171.222 14.8594 170.703 14.6273 170.261 14.163C169.82 13.6987 169.599 13.1525 169.599 12.5244C169.599 11.869 169.82 11.3091 170.261 10.8448C170.703 10.3806 171.222 10.1484 171.819 10.1484H173.144V4.24944C173.144 3.594 173.365 3.0478 173.806 2.61084C174.248 2.14656 174.767 1.91443 175.365 1.91443C175.988 1.91443 176.52 2.14656 176.962 2.61084C177.403 3.0478 177.624 3.594 177.624 4.24944V10.1484H180.779C181.403 10.1484 181.922 10.3806 182.338 10.8448C182.779 11.3091 183 11.869 183 12.5244C183 13.1525 182.779 13.6987 182.338 14.163C181.922 14.6273 181.403 14.8594 180.779 14.8594H177.624V23.9127C177.624 24.4862 177.806 24.9778 178.169 25.3875C178.559 25.7698 179.026 25.961 179.572 25.961H180.546Z" fill="white"/>
<path d="M162.603 18.6754C163.344 18.7835 164.019 19.0132 164.628 19.3644C165.263 19.6886 165.805 20.1209 166.255 20.6613C166.705 21.1746 167.049 21.769 167.287 22.4445C167.552 23.1199 167.684 23.8359 167.684 24.5924C167.684 25.376 167.539 26.146 167.248 26.9025C166.957 27.632 166.533 28.2804 165.977 28.8478C165.422 29.4152 164.773 29.861 164.032 30.1852C163.317 30.4824 162.563 30.631 161.769 30.631H153.313C152.704 30.631 152.175 30.4014 151.725 29.9421C151.275 29.4827 151.05 28.9424 151.05 28.321C151.05 27.6725 151.275 27.1186 151.725 26.6593C152.175 26.2 152.704 25.9704 153.313 25.9704H161.769C162.166 25.9704 162.497 25.8353 162.762 25.5651C163.026 25.2949 163.159 24.9707 163.159 24.5924C163.159 24.2682 163.053 23.9845 162.841 23.7414C162.629 23.4982 162.365 23.3496 162.047 23.2956C161.041 23.1605 159.956 23.0254 158.792 22.8903C157.627 22.7282 156.542 22.5796 155.536 22.4445C154.822 22.3634 154.147 22.1473 153.511 21.796C152.903 21.4448 152.36 21.0125 151.884 20.4992C151.434 19.9588 151.076 19.3644 150.812 18.716C150.574 18.0405 150.455 17.3245 150.455 16.568C150.455 15.7304 150.613 14.9469 150.931 14.2174C151.249 13.4879 151.672 12.853 152.201 12.3126C152.731 11.7452 153.353 11.3129 154.067 11.0157C154.782 10.6915 155.549 10.5294 156.37 10.5294H164.231C164.866 10.5294 165.408 10.7591 165.858 11.2184C166.308 11.6507 166.533 12.191 166.533 12.8395C166.533 13.4879 166.308 14.0418 165.858 14.5011C165.408 14.9334 164.866 15.1495 164.231 15.1495H156.37C155.999 15.1495 155.669 15.2981 155.377 15.5953C155.113 15.8655 154.98 16.1897 154.98 16.568C154.98 16.8922 155.086 17.1759 155.298 17.4191C155.51 17.6622 155.774 17.8108 156.092 17.8649L162.603 18.6754Z" fill="white"/>
<path d="M123.148 10.5294C123.815 10.5294 124.385 10.755 124.858 11.2061C125.331 11.6572 125.567 12.2012 125.567 12.8381V20.6001C125.567 21.98 125.289 23.2803 124.733 24.501C124.177 25.7217 123.426 26.7832 122.481 27.6854C121.536 28.5877 120.424 29.3042 119.145 29.8349C117.866 30.3657 116.49 30.631 115.017 30.631C113.571 30.631 112.209 30.3657 110.93 29.8349C109.651 29.3042 108.539 28.5877 107.594 27.6854C106.649 26.7832 105.898 25.7217 105.342 24.501C104.786 23.2803 104.508 21.98 104.508 20.6001V12.8381C104.508 12.2012 104.744 11.6572 105.217 11.2061C105.69 10.755 106.246 10.5294 106.885 10.5294C107.552 10.5294 108.108 10.755 108.553 11.2061C109.026 11.6572 109.262 12.2012 109.262 12.8381V20.6001C109.262 21.3432 109.415 22.0596 109.721 22.7496C110.026 23.413 110.429 23.9968 110.93 24.501C111.458 24.9787 112.07 25.3635 112.765 25.6554C113.488 25.9473 114.238 26.0932 115.017 26.0932C115.823 26.0932 116.573 25.9473 117.268 25.6554C117.963 25.3635 118.561 24.9787 119.062 24.501C119.59 23.9968 120.007 23.413 120.313 22.7496C120.618 22.0596 120.771 21.3432 120.771 20.6001V12.8381C120.771 12.2012 121.008 11.6572 121.48 11.2061C121.953 10.755 122.509 10.5294 123.148 10.5294Z" fill="white"/>
<path d="M148.505 19.0079C148.645 20.0428 148.366 20.9451 147.668 21.7147C147.333 22.0862 146.928 22.3781 146.453 22.5904C146.006 22.7761 145.532 22.869 145.029 22.869H132.8C133.275 23.8243 133.973 24.6072 134.894 25.2175C135.815 25.8013 136.862 26.0932 138.035 26.0932C138.761 26.0932 139.445 25.9738 140.087 25.735C140.757 25.4962 141.344 25.1644 141.846 24.7399C142.349 24.3153 142.921 24.1295 143.563 24.1826C144.233 24.2091 144.792 24.4612 145.239 24.9389C145.657 25.4165 145.839 25.9738 145.783 26.6107C145.755 27.221 145.49 27.7385 144.987 28.1631C144.066 28.9327 143.005 29.543 141.804 29.9941C140.632 30.4187 139.375 30.631 138.035 30.631C136.583 30.631 135.215 30.3657 133.931 29.8349C132.647 29.3042 131.53 28.5877 130.58 27.6854C129.631 26.7832 128.877 25.7217 128.319 24.501C127.76 23.2803 127.481 21.98 127.481 20.6001C127.481 19.1937 127.76 17.8801 128.319 16.6594C128.877 15.4387 129.631 14.3773 130.58 13.475C131.53 12.5727 132.647 11.8563 133.931 11.3255C135.215 10.7948 136.583 10.5294 138.035 10.5294C139.347 10.5294 140.59 10.755 141.762 11.2061C142.963 11.6307 144.024 12.2278 144.945 12.9973C145.867 13.7404 146.635 14.6293 147.249 15.6643C147.891 16.6992 148.31 17.8138 148.505 19.0079ZM143.312 18.3312C142.837 17.3759 142.125 16.6063 141.176 16.0225C140.255 15.4122 139.208 15.107 138.035 15.107C136.862 15.107 135.815 15.4122 134.894 16.0225C133.973 16.6063 133.275 17.3759 132.8 18.3312H143.312Z" fill="white"/>
<path d="M60.8933 25.961C61.5166 25.961 62.0361 26.1931 62.4516 26.6574C62.8931 27.1217 63.1139 27.6679 63.1139 28.296C63.1139 28.9514 62.8931 29.5113 62.4516 29.9756C62.0361 30.4125 61.5166 30.631 60.8933 30.631H59.9194C59.0364 30.631 58.2053 30.4535 57.4262 30.0985C56.6471 29.7434 55.9588 29.2655 55.3615 28.6647C54.7901 28.0639 54.3356 27.3538 53.998 26.5345C53.6604 25.7152 53.4916 24.8413 53.4916 23.9127V14.8594H52.1671C51.5697 14.8594 51.0503 14.6273 50.6088 14.163C50.1673 13.6987 49.9465 13.1525 49.9465 12.5244C49.9465 11.869 50.1673 11.3091 50.6088 10.8448C51.0503 10.3806 51.5697 10.1484 52.1671 10.1484H53.4916V4.24944C53.4916 3.594 53.7123 3.0478 54.1538 2.61084C54.5954 2.14656 55.1148 1.91443 55.7121 1.91443C56.3354 1.91443 56.8678 2.14656 57.3093 2.61084C57.7508 3.0478 57.9716 3.594 57.9716 4.24944V10.1484H61.1271C61.7504 10.1484 62.2698 10.3806 62.6853 10.8448C63.1268 11.3091 63.3476 11.869 63.3476 12.5244C63.3476 13.1525 63.1268 13.6987 62.6853 14.163C62.2698 14.6273 61.7504 14.8594 61.1271 14.8594H57.9716V23.9127C57.9716 24.4862 58.1534 24.9778 58.517 25.3875C58.9065 25.7698 59.374 25.961 59.9194 25.961H60.8933Z" fill="white"/>
<path fill-rule="evenodd" clip-rule="evenodd" d="M84.8851 4.14795C78.3771 4.14795 73.109 9.58078 73.109 16.2727C73.109 22.9647 78.3771 28.3975 84.8851 28.3975C91.393 28.3975 96.6611 22.9647 96.6611 16.2727C96.6611 9.58078 91.393 4.14795 84.8851 4.14795ZM69.0909 16.2727C69.0909 7.28116 76.1665 0 84.8851 0C93.6037 0 100.679 7.28116 100.679 16.2727C100.679 25.2643 93.6037 32.5455 84.8851 32.5455C76.1665 32.5455 69.0909 25.2643 69.0909 16.2727Z" fill="white"/>
<path d="M88.6016 31.2871L91.8055 29.6443L95.4431 36.7383L92.2392 38.3812L88.6016 31.2871Z" fill="white"/>
<path d="M90.5559 36.8887C90.3982 36.5811 90.5197 36.2039 90.8272 36.0462L94.5227 34.1513C94.8303 33.9936 95.2075 34.1151 95.3652 34.4227L99.2675 42.033C99.9484 43.361 99.4239 44.9897 98.0958 45.6706C96.7678 46.3516 95.1391 45.827 94.4582 44.499L90.5559 36.8887Z" fill="white"/>
<path d="M48.9544 19.0079C49.094 20.0428 48.8148 20.9451 48.1168 21.7147C47.7818 22.0862 47.3769 22.3781 46.9023 22.5904C46.4555 22.7761 45.9809 22.869 45.4783 22.869H33.2493C33.7239 23.8243 34.4219 24.6072 35.3433 25.2175C36.2647 25.8013 37.3117 26.0932 38.4843 26.0932C39.2102 26.0932 39.8943 25.9738 40.5365 25.735C41.2065 25.4962 41.7929 25.1644 42.2954 24.7399C42.798 24.3153 43.3704 24.1295 44.0125 24.1826C44.6826 24.2091 45.241 24.4612 45.6877 24.9389C46.1065 25.4165 46.288 25.9738 46.2322 26.6107C46.2043 27.221 45.939 27.7385 45.4365 28.1631C44.5151 28.9327 43.4541 29.543 42.2536 29.9941C41.0809 30.4187 39.8245 30.631 38.4843 30.631C37.0325 30.631 35.6644 30.3657 34.3801 29.8349C33.0957 29.3042 31.9789 28.5877 31.0296 27.6854C30.0803 26.7832 29.3265 25.7217 28.7681 24.501C28.2097 23.2803 27.9305 21.98 27.9305 20.6001C27.9305 19.1937 28.2097 17.8801 28.7681 16.6594C29.3265 15.4387 30.0803 14.3773 31.0296 13.475C31.9789 12.5727 33.0957 11.8563 34.3801 11.3255C35.6644 10.7948 37.0325 10.5294 38.4843 10.5294C39.7966 10.5294 41.039 10.755 42.2117 11.2061C43.4122 11.6307 44.4732 12.2278 45.3946 12.9973C46.3159 13.7404 47.0837 14.6293 47.698 15.6643C48.3402 16.6992 48.759 17.8138 48.9544 19.0079ZM43.7612 18.3312C43.2866 17.3759 42.5746 16.6063 41.6253 16.0225C40.704 15.4122 39.657 15.107 38.4843 15.107C37.3117 15.107 36.2647 15.4122 35.3433 16.0225C34.4219 16.6063 33.7239 17.3759 33.2493 18.3312H43.7612Z" fill="white"/>
<path d="M24.2296 4.73298C25.1032 5.60442 25.772 6.62563 26.2362 7.79663C26.7276 8.94039 26.9733 10.1522 26.9733 11.4322C26.946 12.7121 26.6866 13.9239 26.1952 15.0677C25.7038 16.1842 25.0213 17.1646 24.1477 18.0088C23.3014 18.853 22.3049 19.5202 21.1583 20.0104C20.039 20.5005 18.8241 20.7456 17.5137 20.7456H8.66836V28.3026C8.66836 28.929 8.43631 29.4736 7.9722 29.9366C7.5354 30.3995 6.98939 30.631 6.33418 30.631C5.70627 30.631 5.16027 30.3995 4.69616 29.9366C4.23205 29.4736 4 28.929 4 28.3026V4.28365C4 3.63007 4.23205 3.07181 4.69616 2.60885C5.16027 2.1459 5.70627 1.91443 6.33418 1.91443H17.5137C18.7968 1.91443 20.0117 2.15952 21.1583 2.6497C22.3322 3.13989 23.356 3.83431 24.2296 4.73298ZM22.264 11.3913C22.264 10.0842 21.8135 8.95401 20.9126 8.00087C19.9844 7.07497 18.8514 6.61202 17.5137 6.61202H8.66836V16.048H17.5137C18.1689 16.048 18.7832 15.9255 19.3565 15.6804C19.9298 15.4353 20.4348 15.1085 20.8716 14.7C21.3084 14.2643 21.6497 13.7741 21.8954 13.2295C22.1411 12.6576 22.264 12.0449 22.264 11.3913Z" fill="white"/>
</g>
<defs>
<filter id="filter0_d_735_3989" x="0" y="0" width="187" height="53.9689" filterUnits="userSpaceOnUse" color-interpolation-filters="sRGB">
<feFlood flood-opacity="0" result="BackgroundImageFix"/>
<feColorMatrix in="SourceAlpha" type="matrix" values="0 0 0 0 0 0 0 0 0 0 0 0 0 0 0 0 0 0 127 0" result="hardAlpha"/>
<feOffset dy="4"/>
<feGaussianBlur stdDeviation="2"/>
<feComposite in2="hardAlpha" operator="out"/>
<feColorMatrix type="matrix" values="0 0 0 0 0.123655 0 0 0 0 0.241589 0 0 0 0 0.261762 0 0 0 1 0"/>
<feBlend mode="normal" in2="BackgroundImageFix" result="effect1_dropShadow_735_3989"/>
<feBlend mode="normal" in="SourceGraphic" in2="effect1_dropShadow_735_3989" result="shape"/>
</filter>
</defs>
</svg>
