<svg width="290" height="349" viewBox="0 0 290 349" fill="none" xmlns="http://www.w3.org/2000/svg">
<mask id="mask0_712_2697" style="mask-type:alpha" maskUnits="userSpaceOnUse" x="0" y="0" width="290" height="349">
<rect width="290" height="349" fill="#D9D9D9"/>
</mask>
<g mask="url(#mask0_712_2697)">
<path d="M22.2216 215.104C10.9942 167.876 40.9468 110.818 90.3116 104.117C117.124 100.49 145.035 111.257 171.121 104.117C215.598 92.0719 232.262 35.9296 274.031 16.7829C309.951 0.346822 354.507 17.3174 380.906 46.0853C419.162 87.6431 427.504 151.192 406.423 203.058C385.342 254.924 337.548 294.478 283.119 312.097C191.514 341.801 47.9737 323.265 22.2412 215.027" fill="#6DC5D1"/>
<path d="M287.006 38.6212L266.376 25.9457C250.949 16.401 219.642 34.956 207.492 48.2041C195.342 61.4522 185.705 77.2011 170.885 87.5476C140.776 108.546 98.5949 101.731 64.4615 115.762C30.7207 129.659 8.20725 164.326 6.16592 199.908C4.1246 235.491 21.0833 270.845 47.9543 295.089C74.8252 319.332 110.764 332.905 147.175 336.646C183.585 340.388 220.584 334.737 255.581 324.143C293.601 312.689 331.66 293.6 352.426 260.632C374.743 225.145 372.898 179.158 357.863 140.216C342.828 101.273 323.18 60.8223 287.006 38.6212Z" stroke="#C3682A" stroke-width="1.44" stroke-miterlimit="10" stroke-dasharray="2.47 2.47"/>
<path d="M135.869 45.4552C129.431 45.7797 122.855 49.2731 120.559 55.1336C119.588 58.0099 119.506 61.0998 120.322 64.0211C121.139 66.9423 122.818 69.5667 125.152 71.5696C129.96 75.5088 136.18 77.4311 142.444 76.9147C148.623 76.3385 154.625 74.5873 160.109 71.7605C161.212 71.3831 162.227 70.7976 163.096 70.0375C163.965 69.2775 164.671 68.358 165.174 67.3317C166.822 62.3494 157.813 54.7136 154.378 51.5447C149.25 47.2628 142.616 45.0802 135.869 45.4552Z" stroke="#C3682A" stroke-miterlimit="10"/>
<path d="M184.294 280.493C191.655 286.697 202.961 286.334 211.931 282.65C233.934 273.582 243.826 235.021 212.794 230.573C190.242 227.366 164.529 263.789 184.294 280.493Z" fill="#B8E4E9"/>
</g>
</svg>
