<svg width="303" height="345" viewBox="0 0 303 345" fill="none" xmlns="http://www.w3.org/2000/svg">
<mask id="mask0_712_2709" style="mask-type:alpha" maskUnits="userSpaceOnUse" x="0" y="0" width="303" height="345">
<rect width="303" height="345" fill="#D9D9D9"/>
</mask>
<g mask="url(#mask0_712_2709)">
<path d="M37.0221 22.427C-37.6978 49.7797 -83.9502 135.381 -64.5869 210.447C-57.0803 239.552 -40.3925 267.017 -15.1586 284.394C10.0752 301.772 44.1438 307.925 73.0155 296.849C100.521 286.24 122.656 261.088 152.239 259.913C176.954 258.925 199.762 275.426 224.457 274.326C260.008 272.741 283.567 233.847 280.776 199.483C278.062 166.127 256.447 142.857 243.994 113.249C233.504 88.3197 224.977 69.9727 202.515 51.9612C157.513 15.8825 92.2633 2.25273 37.0221 22.427Z" fill="#6DC5D1"/>
<path d="M200.303 222.896C184.73 219.935 168.058 220.326 153.662 226.788C139.266 233.25 127.65 246.472 126.144 261.724C124.639 276.976 135.04 293.233 150.536 296.492C166.861 299.937 183.573 289.397 200.052 292.134C209.701 293.736 217.902 299.695 226.277 304.648C234.652 309.602 244.551 313.811 254.046 311.371C267.785 307.87 274.25 291.445 271.297 278.037C263.868 244.424 232.163 228.93 200.303 222.896Z" fill="#FCC147"/>
<path d="M-22.6555 59.0783C-61.4186 91.0152 -83.6516 140.107 -84.9424 189.423C-86.0406 231.377 -71.4562 275.012 -39.5325 303.286C-7.60877 331.561 43.08 341.035 80.6294 320.105C108.873 304.408 127.696 274.059 158.541 263.949C177.807 257.67 198.576 260.212 218.747 261.688C238.919 263.164 260.593 262.865 277.47 252.027C300.088 237.525 307.313 207.046 300.589 181.575C293.865 156.104 275.851 134.856 256.547 116.411C202.159 64.4042 123.207 7.25785 42.8873 26.5994C18.7594 32.403 -3.66727 43.5162 -22.6555 59.0783Z" stroke="#C3682A" stroke-width="0.9" stroke-miterlimit="10"/>
<path d="M139.344 42.8414C132.752 50.9109 131.104 61.9785 133.246 72.0733C134.63 78.4523 137.679 84.6718 143.134 88.3557C150.286 93.14 159.845 92.6137 168.448 91.306C174.776 90.3492 181.335 88.9777 186.246 84.927C194.173 78.548 195.475 66.6192 191.619 57.3218C183.164 36.8771 156.829 21.2803 139.344 42.7776" fill="#00AFA2"/>
<path d="M210.564 193.001H98.0921C97.4945 192.896 96.964 192.655 96.5849 192.314C96.2059 191.974 96 191.555 96 191.124C96 190.692 96.2059 190.273 96.5849 189.933C96.964 189.593 97.4945 189.351 98.0921 189.247H210.564C210.972 189.175 211.397 189.17 211.808 189.23C212.219 189.291 212.605 189.417 212.936 189.598C213.268 189.779 213.536 190.011 213.72 190.275C213.904 190.539 214 190.83 214 191.124C214 191.418 213.904 191.708 213.72 191.973C213.536 192.237 213.268 192.469 212.936 192.65C212.605 192.831 212.219 192.956 211.808 193.017C211.397 193.078 210.972 193.073 210.564 193.001Z" fill="#FBF0B2"/>
</g>
</svg>
