<svg width="467" height="414" viewBox="0 0 467 414" fill="none" xmlns="http://www.w3.org/2000/svg">
<path d="M156.421 123.521C156.421 129.349 154.394 134.998 150.685 139.503C146.975 144.008 141.814 147.092 136.079 148.229C130.345 149.366 124.393 148.486 119.236 145.739C114.08 142.991 110.039 138.546 107.801 133.161C105.564 127.777 105.269 121.785 106.966 116.208C108.663 110.63 112.248 105.812 117.109 102.574C121.971 99.3357 127.808 97.8782 133.627 98.4495C139.445 99.0208 144.885 101.586 149.019 105.707C151.37 108.043 153.234 110.82 154.505 113.877C155.775 116.934 156.426 120.212 156.421 123.521Z" fill="#ECE7E1" stroke="black" stroke-miterlimit="10" stroke-linecap="round"/>
<path d="M146.312 103.176C142.412 101.978 138.274 101.702 134.243 102.371C130.202 102.983 126.416 104.682 123.312 107.279C120.378 109.879 118.398 113.344 117.674 117.146C116.887 120.944 117.2 124.88 118.579 128.514C119.296 130.394 120.381 132.121 121.773 133.598C123.161 135.079 124.886 136.221 126.81 136.932C129.81 137.921 133.066 137.892 136.047 136.848C139.028 135.805 141.559 133.808 143.23 131.183C143.953 129.866 144.394 128.419 144.524 126.931C144.655 125.443 144.474 123.944 143.991 122.526C143.038 119.701 140.898 117.379 137.602 116.865C136.322 116.628 134.998 116.776 133.806 117.288C132.614 117.801 131.609 118.655 130.926 119.737C130.24 120.82 129.847 122.054 129.78 123.325C129.714 124.596 129.978 125.863 130.548 127.008" stroke="#070707" stroke-miterlimit="10" stroke-linecap="round"/>
<path d="M102.087 134.616C104.056 133.757 106.542 132.75 109.492 131.737C112.825 130.597 116.222 129.636 119.666 128.859C124.934 127.7 130.299 126.992 135.698 126.742C146.236 126.204 156.8 127.125 167.063 129.478C170.58 130.282 174.052 131.255 177.467 132.392C181.936 133.881 186.301 135.64 190.538 137.658C187.255 142.266 184.289 147.076 181.66 152.055C173.893 166.762 169.199 182.782 167.842 199.214C167.276 206.123 167.292 213.065 167.89 219.972C167.89 219.972 160.672 221.894 151.309 227.641C138.945 235.211 128.815 245.693 121.886 258.086C121.886 258.086 126.031 241.787 125.62 218.208C125.209 194.628 120.264 163.732 102.087 134.616Z" fill="#F6C34C" stroke="#070707" stroke-miterlimit="10" stroke-linecap="round"/>
<path d="M402.821 210.504C402.519 197.644 400.467 184.879 396.716 172.545C391.183 154.335 380.591 133.15 360.302 116.747C353.575 111.309 346.177 106.712 338.278 103.063C332.082 100.201 325.626 97.907 318.993 96.2106C293.497 89.9141 267.759 91.16 244.869 98.8362C221.979 106.512 201.953 120.629 187.889 140.074C173.397 160.102 168.239 181.627 166.918 199.214C166.009 211.091 166.699 223.034 168.968 234.737L285.897 222.623L402.821 210.504Z" fill="#ECE7E1" stroke="black" stroke-miterlimit="10" stroke-linecap="round"/>
<path d="M294.097 221.219L348.459 215.602L402.821 209.984C402.519 197.158 400.465 184.427 396.712 172.126C391.175 153.964 380.577 132.835 360.274 116.476C353.543 111.052 346.139 106.467 338.236 102.828C332.035 99.9734 325.575 97.6854 318.938 95.9934C314.682 94.946 310.423 94.1056 306.16 93.4723C301.898 92.839 297.653 92.4094 293.425 92.1835C284.763 107.277 279.277 123.891 277.284 141.061C274.714 163.392 277.602 190.94 294.097 221.219Z" fill="#F6991A" stroke="#070707" stroke-miterlimit="10" stroke-linecap="round"/>
<path d="M314.795 95.8702C316.543 102.637 317.207 109.621 316.763 116.58C316.066 128.342 311.976 142.987 298.528 154.37C300.861 158.958 302.046 164.006 301.986 169.113C301.933 177.76 298.31 188.938 284.043 199.099" stroke="#070707" stroke-miterlimit="10" stroke-linecap="round"/>
<path d="M231.192 104.473C222.665 108.546 214.681 113.606 207.415 119.54C200.1 125.525 193.603 132.386 188.08 139.958C173.459 160.009 168.254 181.561 166.921 199.17C166.005 211.062 166.7 223.019 168.99 234.737L204.605 231.077L240.214 227.412C249.279 202.711 248.517 175.675 244.742 152.958C241.947 136.392 237.406 120.146 231.192 104.473Z" fill="#F6991A" stroke="#070707" stroke-miterlimit="10" stroke-linecap="round"/>
<path d="M211.483 116.762C210.612 122.71 210.522 128.745 211.218 134.716C212.291 143.585 215.565 153.689 224.104 160.09C225.281 160.97 226.526 161.759 227.826 162.45C229.367 163.271 230.977 163.959 232.637 164.507C230.893 167.722 229.632 171.17 228.895 174.743C227.701 180.471 227.597 187.844 231.684 194.883C233.481 197.954 235.872 200.648 238.721 202.811C240.621 204.262 242.685 205.49 244.872 206.472" stroke="#070707" stroke-miterlimit="10" stroke-linecap="round"/>
<path d="M164.833 312.336L178.013 333.436L191.194 354.536C184.076 359.666 176.966 364.812 169.863 369.976C162.759 375.139 155.622 380.248 148.452 385.303C142.458 389.533 136.4 393.661 129.878 396.542C123.357 399.424 116.376 401.013 108.531 400.19C104.991 399.786 101.51 398.984 98.1611 397.799C95.0394 396.746 92.0574 395.338 89.2775 393.605C88.9401 393.385 88.5921 393.15 88.3338 392.971L87.8909 392.67C80.4643 387.994 75.0034 380.903 72.4909 372.673C70.1501 365.188 70.1395 357.295 71.0885 350.239C71.8041 344.953 73.1195 339.76 75.011 334.754C76.8992 329.744 79.3199 324.938 82.2339 320.413L103.565 287.204L124.891 253.996C126.578 251.366 128.385 248.812 130.311 246.332C132.239 243.866 134.294 241.496 136.469 239.231C144.267 231.069 154.108 224.998 165.039 221.605C175.493 218.258 186.823 217.006 198.817 216.465C216.084 215.709 235.918 217.517 253.342 223.847C270.767 230.177 285.766 241.034 293.395 258.364C294.365 260.578 295.36 262.78 296.379 264.97C297.398 267.16 298.43 269.345 299.474 271.525L322.392 319.412L345.31 367.298C347.084 370.996 348.137 374.98 348.415 379.049C348.865 385.562 347.178 392.046 343.596 397.574C342.345 399.478 340.893 401.25 339.263 402.862C333.507 408.63 325.779 412.166 317.526 412.81C309.253 413.481 301 411.311 294.212 406.679C280.942 397.615 265.078 383.177 252.535 370.987C239.993 358.797 230.761 348.896 230.761 348.896L246.752 329.992L262.742 311.089C262.768 311.061 262.784 311.025 262.789 310.988C262.793 310.951 262.786 310.913 262.769 310.88C262.753 310.847 262.727 310.819 262.695 310.8C262.664 310.781 262.627 310.772 262.59 310.772L213.701 311.564L164.833 312.336Z" fill="#F09D9D" stroke="#070707" stroke-miterlimit="10" stroke-linecap="round"/>
<path d="M318.16 339.808C318.161 343.646 316.792 347.366 314.289 350.333C311.785 353.3 308.302 355.331 304.431 356.08C300.56 356.829 296.542 356.25 293.062 354.441C289.581 352.632 286.853 349.705 285.342 346.159C283.832 342.613 283.632 338.667 284.778 334.994C285.923 331.321 288.343 328.148 291.624 326.015C294.905 323.883 298.845 322.922 302.773 323.298C306.701 323.674 310.373 325.363 313.163 328.077C314.75 329.616 316.008 331.444 316.865 333.458C317.723 335.471 318.163 337.629 318.16 339.808Z" fill="#DBCAF4" stroke="black" stroke-miterlimit="10" stroke-linecap="round"/>
<path d="M252.454 281.44C252.453 285.42 251.084 289.277 248.58 292.353C246.075 295.429 242.591 297.535 238.721 298.31C234.85 299.086 230.832 298.485 227.352 296.608C223.872 294.731 221.145 291.696 219.635 288.018C218.125 284.341 217.926 280.249 219.072 276.441C220.217 272.632 222.637 269.342 225.918 267.13C229.2 264.919 233.14 263.924 237.067 264.314C240.994 264.704 244.666 266.455 247.457 269.27C249.043 270.866 250.302 272.763 251.159 274.852C252.017 276.94 252.457 279.179 252.454 281.44Z" fill="#DBCAF4" stroke="black" stroke-miterlimit="10" stroke-linecap="round"/>
<path d="M119.777 357.012C119.777 360.851 118.359 364.57 115.762 367.537C113.166 370.505 109.553 372.536 105.539 373.285C101.525 374.034 97.3584 373.455 93.7488 371.645C90.1392 369.836 87.3102 366.909 85.7437 363.363C84.1773 359.817 83.9703 355.872 85.1582 352.199C86.346 348.526 88.8551 345.352 92.258 343.22C95.6608 341.087 99.7469 340.127 103.82 340.503C107.893 340.879 111.701 342.568 114.595 345.282C116.24 346.821 117.544 348.65 118.433 350.663C119.322 352.676 119.779 354.834 119.777 357.012Z" fill="#DBCAF4" stroke="black" stroke-miterlimit="10" stroke-linecap="round"/>
<path d="M304.261 397.176C304.264 393.558 302.962 390.045 300.563 387.195C298.163 384.345 294.805 382.323 291.023 381.453C287.242 380.583 283.255 380.913 279.699 382.392C276.144 383.872 273.225 386.414 271.408 389.613C275.224 392.82 279.078 395.942 282.857 398.836C286.636 401.73 290.33 404.396 293.874 406.705C294.61 407.187 295.361 407.638 296.126 408.058C296.891 408.478 297.667 408.872 298.453 409.242C300.285 407.726 301.749 405.867 302.75 403.787C303.751 401.707 304.266 399.454 304.261 397.176Z" fill="#DBCAF4" stroke="black" stroke-miterlimit="10" stroke-linecap="round"/>
<path d="M156.898 249.468C160.319 249.469 163.662 248.452 166.501 246.546C169.341 244.641 171.547 241.933 172.838 238.77C174.129 235.606 174.448 232.13 173.752 228.785C173.056 225.44 171.377 222.378 168.931 219.99C163.68 221.388 158.598 223.358 153.778 225.865C148.784 228.497 144.152 231.761 139.995 235.577C140.76 239.493 142.865 243.022 145.948 245.559C149.032 248.096 152.903 249.483 156.898 249.484V249.468Z" fill="#DBCAF4" stroke="black" stroke-miterlimit="10" stroke-linecap="round"/>
<path d="M265.645 249.443C268.592 249.447 271.49 248.691 274.052 247.25C276.613 245.809 278.751 243.733 280.253 241.226C276.276 237.241 271.802 233.774 266.939 230.908C261.99 227.992 256.761 225.57 251.328 223.677C250.482 224.994 249.823 226.42 249.37 227.914C248.615 230.419 248.462 233.064 248.924 235.637C249.386 238.211 250.45 240.643 252.031 242.738C253.612 244.833 255.666 246.534 258.03 247.705C260.393 248.877 263.001 249.486 265.645 249.484V249.443Z" fill="#DBCAF4" stroke="black" stroke-miterlimit="10" stroke-linecap="round"/>
<path d="M159.489 355.17C155.941 355.168 152.483 356.244 149.6 358.247C146.716 360.25 144.554 363.078 143.417 366.335C142.279 369.591 142.225 373.111 143.26 376.399C144.296 379.687 146.369 382.578 149.189 384.664C153.581 381.558 157.956 378.434 162.313 375.291C166.67 372.148 171.024 369 175.375 365.847C174.165 362.711 171.995 360.008 169.156 358.099C166.317 356.191 162.944 355.169 159.489 355.17Z" fill="#DBCAF4" stroke="black" stroke-miterlimit="10" stroke-linecap="round"/>
<path d="M120.861 263.45C116.877 279.869 104.418 282.234 92.9559 280.516C81.4935 278.797 71.0535 272.978 71.0535 272.978C62.458 284.087 52.7506 287.725 45.1933 288.587C37.636 289.449 32.2289 287.53 32.2289 287.53C9.1724 230.17 26.0524 190.856 48.6926 165.884C71.3328 140.911 99.7121 130.28 99.7121 130.28C99.7121 130.28 109.836 143.656 117.541 166.992C125.246 190.328 130.531 223.613 120.861 263.45Z" fill="#B8E4E9" stroke="black" stroke-miterlimit="10" stroke-linecap="round"/>
<path d="M99.5278 241.4C99.6281 243.086 99.2108 244.763 98.3261 246.231C97.4887 247.595 96.2862 248.728 94.8394 249.514C93.3925 250.301 91.7521 250.714 90.0828 250.713C88.2963 250.702 86.5508 250.206 85.0546 249.284H85.0125C83.5182 250.206 81.7744 250.702 79.9895 250.713C78.3196 250.714 76.6788 250.3 75.2312 249.514C73.7836 248.727 72.5801 247.595 71.741 246.231C70.8581 244.763 70.4427 243.085 70.5445 241.4C68.9492 240.64 67.6203 239.46 66.718 238.003C65.8826 236.635 65.4429 235.083 65.4429 233.503C65.4429 231.924 65.8826 230.372 66.718 229.003C67.6206 227.548 68.9495 226.37 70.5445 225.612C70.4431 223.928 70.8585 222.252 71.741 220.786C72.5817 219.423 73.7856 218.292 75.2328 217.506C76.6801 216.719 78.3201 216.305 79.9895 216.303C81.7749 216.316 83.5186 216.814 85.0125 217.738H85.0441C86.5398 216.814 88.2853 216.316 90.0723 216.303C91.7412 216.304 93.3807 216.718 94.8272 217.505C96.2737 218.291 97.4765 219.423 98.3156 220.786C99.1995 222.252 99.6168 223.927 99.5173 225.612C101.11 226.373 102.438 227.55 103.344 229.003C104.176 230.373 104.614 231.924 104.614 233.503C104.614 235.082 104.176 236.634 103.344 238.003C102.441 239.456 101.117 240.635 99.5278 241.4Z" fill="#FF6406" stroke="#070707" stroke-miterlimit="10" stroke-linecap="round"/>
<path d="M90.7146 233.519C90.7121 234.656 90.3044 235.757 89.5608 236.634C88.8172 237.512 87.7838 238.112 86.6366 238.331C85.4894 238.551 84.2994 238.377 83.2693 237.839C82.2392 237.301 81.4327 236.432 80.9872 235.381C80.5417 234.33 80.4848 233.161 80.8262 232.073C81.1675 230.985 81.886 230.047 82.8592 229.416C83.8325 228.786 85.0003 228.504 86.1637 228.617C87.3271 228.73 88.4141 229.232 89.2396 230.038C89.7093 230.495 90.0814 231.037 90.3345 231.635C90.5877 232.232 90.7168 232.872 90.7146 233.519Z" fill="#ECE7E1" stroke="black" stroke-miterlimit="10" stroke-linecap="round"/>
<path d="M113.401 164.449C111.978 164.419 110.621 163.872 109.607 162.92C108.594 161.967 108 160.682 107.947 159.326C107.894 157.971 108.387 156.647 109.324 155.626C110.261 154.605 111.572 153.964 112.989 153.834C111.903 151.391 110.855 149.119 109.818 147.033C108.781 144.947 107.782 143.032 106.826 141.34C106.205 141.423 105.594 141.563 105.002 141.759C104.422 141.939 103.86 142.17 103.324 142.448C101.831 143.265 100.593 144.445 99.7352 145.869C98.8244 147.394 98.3946 149.137 98.4973 150.889C96.8572 151.683 95.4895 152.908 94.5554 154.418C93.6949 155.84 93.2418 157.453 93.2418 159.094C93.2418 160.736 93.6949 162.349 94.5554 163.771C95.4895 165.281 96.8572 166.506 98.4973 167.3C98.3946 169.052 98.8244 170.795 99.7352 172.32C100.598 173.738 101.837 174.915 103.327 175.733C104.818 176.55 106.507 176.98 108.227 176.978C110.067 176.967 111.866 176.452 113.407 175.493H113.439C114.55 176.183 115.8 176.646 117.109 176.851C118.417 177.056 119.756 176.999 121.041 176.683C120.389 174.268 119.707 171.951 118.994 169.733C118.283 167.497 117.544 165.349 116.795 163.284C115.825 164.003 114.63 164.391 113.401 164.386V164.449Z" fill="#FF6406" stroke="#070707" stroke-miterlimit="10" stroke-linecap="round"/>
<path d="M107.141 158.537C107.141 159.184 107.284 159.825 107.56 160.422C107.837 161.02 108.242 161.563 108.753 162.02C109.264 162.477 109.871 162.84 110.539 163.087C111.206 163.334 111.922 163.461 112.644 163.46C113.854 163.465 115.031 163.106 115.986 162.44C115.377 160.86 114.751 159.332 114.125 157.867C113.5 156.402 112.869 154.994 112.238 153.629C110.853 153.719 109.557 154.275 108.611 155.185C107.666 156.096 107.14 157.294 107.141 158.537Z" fill="#ECE7E1" stroke="black" stroke-miterlimit="10" stroke-linecap="round"/>
<path d="M33.2762 189.776C33.1812 191.458 33.5909 193.132 34.4568 194.597C35.2767 195.963 36.4553 197.097 37.8745 197.887C39.2938 198.677 40.904 199.095 42.5438 199.098C44.2947 199.089 46.0054 198.592 47.4688 197.668H47.5052C48.9687 198.592 50.6794 199.089 52.4303 199.098C53.6863 199.11 54.9316 198.874 56.0892 198.406C57.2468 197.937 58.2922 197.244 59.1607 196.372C60.0292 195.499 60.7024 194.464 61.1388 193.331C61.5752 192.199 61.7655 190.992 61.6979 189.786C63.2602 189.025 64.5618 187.847 65.4476 186.395C66.2722 185.027 66.7066 183.474 66.7066 181.893C66.7066 180.312 66.2722 178.759 65.4476 177.392C64.5618 175.939 63.2602 174.762 61.6979 174.001C61.7913 172.319 61.3835 170.646 60.5225 169.179C59.8036 167.985 58.8087 166.966 57.6148 166.2C56.4208 165.434 55.0598 164.942 53.6368 164.763C52.3776 164.603 51.0974 164.704 49.8819 165.058C46.5439 168.621 43.445 172.385 40.604 176.327C37.6024 180.489 34.9238 184.859 32.5897 189.4C32.6989 189.47 32.8134 189.535 32.9278 189.595L33.2762 189.781V189.776ZM47.4896 176.772C48.7176 176.773 49.9071 177.183 50.8557 177.933C51.8043 178.683 52.4533 179.726 52.6923 180.884C52.9313 182.043 52.7455 183.245 52.1665 184.286C51.5874 185.328 50.651 186.144 49.5166 186.596C48.3822 187.048 47.12 187.108 45.9448 186.765C44.7696 186.423 43.7541 185.7 43.0711 184.718C42.3882 183.737 42.08 182.558 42.1991 181.383C42.3182 180.208 42.8572 179.108 43.7244 178.272C44.2208 177.796 44.8106 177.419 45.4596 177.163C46.1086 176.907 46.8039 176.777 47.5052 176.782L47.4896 176.772Z" fill="#FF6406" stroke="#070707" stroke-miterlimit="10" stroke-linecap="round"/>
<path d="M47.1224 186.81C48.4377 186.809 49.7123 186.415 50.7289 185.693C51.7455 184.972 52.4414 183.968 52.6979 182.853C52.9544 181.737 52.7558 180.58 52.1358 179.577C51.5158 178.574 50.5128 177.788 49.2976 177.353C48.0825 176.917 46.7304 176.86 45.4716 177.19C44.2128 177.519 43.1252 178.216 42.3941 179.162C41.663 180.107 41.3336 181.242 41.462 182.374C41.5904 183.505 42.1686 184.564 43.0982 185.368C43.6259 185.826 44.2531 186.189 44.9438 186.436C45.6344 186.684 46.3748 186.811 47.1224 186.81Z" fill="#ECE7E1" stroke="black" stroke-miterlimit="10" stroke-linecap="round"/>
<path d="M354.914 311.435L347.556 341.228L340.197 371.026L373.401 382.885L406.6 394.739C410.101 396.159 413.767 397.161 417.517 397.723C422.845 398.543 428.292 398.263 433.502 396.902C439.977 395.117 445.876 391.757 450.637 387.139C455.734 382.206 459.693 376.279 462.254 369.751C463.648 366.262 464.656 362.639 465.26 358.943C465.86 355.242 466.096 351.495 465.965 347.752C465.502 334.199 464.44 321.851 463.11 310.874C461.781 299.897 460.172 290.303 458.627 282.259C453.675 256.583 448.02 240.235 443.005 229.723C437.99 219.21 433.622 214.497 431.247 212.115C413.323 194.1 389.412 186.199 369.07 182.888C355.597 180.692 341.897 180.12 328.281 181.185C319.961 181.955 311.727 183.427 303.671 185.582C292.117 188.658 281.009 193.134 270.608 198.904C260.341 204.621 250.847 211.555 242.345 219.547C247.128 220.98 251.809 222.716 256.358 224.744C259.779 226.27 263.113 227.972 266.345 229.845C269.181 231.476 271.917 233.264 274.54 235.201C276.558 236.731 277.904 237.873 278.671 238.547C279.775 239.516 281.121 240.765 282.582 242.306C284.227 244.042 285.759 245.875 287.171 247.794C289.82 251.404 292.035 255.295 293.773 259.393C294.753 261.723 295.591 264.108 296.28 266.534C301.295 283.366 308.995 299.255 317.363 314.878C325.731 330.501 334.777 345.875 342.467 361.748C344.542 353.369 346.615 344.987 348.686 336.602C350.757 328.216 352.833 319.827 354.914 311.435Z" fill="#B8E4E9" stroke="black" stroke-miterlimit="10" stroke-linecap="round"/>
<path d="M179.166 276.141C179.166 276.141 181.468 274.702 186.727 275.569C191.987 276.435 200.204 279.602 212.019 288.809" stroke="black" stroke-miterlimit="10" stroke-linecap="round"/>
<path d="M218.337 282.665C218.337 282.665 213.81 279.649 207.756 276.451C201.701 273.253 194.118 269.872 188.011 269.147" stroke="black" stroke-miterlimit="10" stroke-linecap="round"/>
<path d="M222.128 277.749C220.56 276.728 218.906 275.686 217.092 274.64C215.277 273.594 213.392 272.548 211.368 271.516C209.479 270.55 207.635 269.666 205.838 268.866C204.051 268.069 202.311 267.341 200.647 266.689" stroke="black" stroke-miterlimit="10" stroke-linecap="round"/>
<path d="M182.401 217.604C178.823 218.121 177.161 221.115 176.743 224.646C176.373 228.151 176.99 231.687 178.527 234.873C179.875 237.356 182.043 239.32 184.676 240.445C186.321 241.176 188.067 241.665 189.858 241.895C193.08 242.284 196.349 241.744 199.263 240.342C202.344 238.848 204.993 236.623 206.969 233.869C207.885 235.527 209.05 237.042 210.425 238.364C213.066 241.001 216.526 242.709 220.263 243.221C222.252 243.437 224.264 243.357 226.228 242.983C229.912 242.379 233.23 240.442 235.522 237.556C237.498 234.96 238.562 231.808 238.554 228.571C238.556 225.18 237.526 221.865 235.596 219.048C235.596 219.048 228.715 217.79 218.66 216.977C208.604 216.164 195.256 215.791 182.401 217.604Z" fill="#ECE7E1" stroke="black" stroke-miterlimit="10" stroke-linecap="round"/>
<path d="M134.215 286.753L128.859 284.097L123.503 281.436L110.27 297.289L97.0326 313.137L100.11 315.103L103.187 317.074L119.764 316.364L136.336 315.659L137.523 307.748L138.731 299.837L136.489 293.295L134.215 286.753Z" fill="#F2B3C1" stroke="black" stroke-miterlimit="10" stroke-linecap="round"/>
<path d="M112.674 276.732C112.307 276.991 111.82 277.321 111.228 277.682C110.55 278.091 109.85 278.466 109.132 278.805C104.416 281.016 99.4276 281.301 94.8531 280.788C90.2786 280.274 86.1076 278.958 82.9846 277.977C81.5332 277.52 79.7621 276.905 77.7447 276.066C75.4776 275.121 73.2727 274.041 71.1424 272.833C70.2778 273.906 69.256 275.085 68.0613 276.305C64.0578 280.387 59.3157 283.723 54.0707 286.145L75.6121 299.766L97.1534 313.387L110.363 297.738L123.568 282.084L118.118 279.41L112.674 276.732Z" fill="#F6C34C" stroke="#070707" stroke-miterlimit="10" stroke-linecap="round"/>
<path d="M278.989 193.365C285.786 210.541 292.582 227.704 299.375 244.856C306.169 262.008 312.964 279.173 319.762 296.352C320.071 297.104 320.63 297.734 321.35 298.143C322.07 298.551 322.91 298.715 323.737 298.609C324.564 298.502 325.331 298.131 325.916 297.554C326.501 296.977 326.871 296.227 326.966 295.423L333.933 237.43L340.905 179.436C334.69 179.457 328.484 179.867 322.324 180.663C314.776 181.632 307.321 183.193 300.032 185.328C296.024 186.508 292.266 187.807 288.761 189.167C285.257 190.527 281.985 191.928 278.989 193.365Z" fill="#ECE7E1" stroke="black" stroke-miterlimit="10" stroke-linecap="round"/>
<path d="M236.027 212.617L251.19 217.529L266.353 222.436L254.448 232.89L242.538 243.339L239.285 227.978L236.027 212.617Z" fill="#040400" stroke="#040400" stroke-miterlimit="10"/>
<path d="M262.563 310.613L251.518 299.482L240.473 288.356C237.834 285.696 235.066 283.165 232.169 280.763C229.276 278.374 226.251 276.14 223.109 274.07C219.267 271.531 214.996 269.05 210.979 267.474C206.963 265.899 203.205 265.219 200.395 266.285C199.483 265.955 198.537 265.722 197.574 265.59C194.746 265.193 191.862 265.71 189.366 267.063C188.599 267.476 187.875 267.962 187.207 268.514C185.255 268.555 183.364 269.186 181.798 270.322C180.687 271.143 179.783 272.2 179.152 273.411C178.791 274.105 178.521 274.84 178.348 275.599C176.14 276.817 174.076 278.267 172.193 279.923C171.378 280.639 170.642 281.349 169.981 282.045C169.319 282.74 168.732 283.414 168.213 284.052C167.461 284.755 166.923 285.646 166.657 286.627C166.421 287.429 166.516 288.29 166.922 289.026C167.225 289.512 167.666 289.904 168.192 290.153C168.515 290.291 168.855 290.392 169.203 290.452C169.848 290.602 170.521 290.602 171.166 290.452C172.156 290.184 173.08 289.728 173.886 289.108C175.546 287.879 177.3 286.775 179.131 285.803C180.431 285.141 181.866 284.766 183.333 284.706H183.64H183.942C185.528 284.728 187.094 285.061 188.546 285.684C190.022 286.3 191.448 287.025 192.811 287.852C197.633 290.671 202.222 293.852 206.534 297.366C211.35 301.434 215.113 305.918 213.969 309.393C213.843 309.77 213.665 310.128 213.44 310.459C213.169 310.839 212.851 311.184 212.493 311.488C212.493 311.488 211.593 312.652 209.408 312.647C207.222 312.642 203.75 311.463 198.606 306.778C198.225 306.433 197.86 306.083 197.495 305.748C197.13 305.413 196.77 305.032 196.436 304.667C195.306 303.485 193.985 302.49 192.525 301.722C190.779 300.867 188.773 300.558 187.085 302.072C186.526 302.36 186.059 302.793 185.736 303.323C185.413 303.852 185.246 304.458 185.254 305.074C185.196 307.298 186.868 310.984 193.764 316.807C195.309 318.114 196.851 319.427 198.389 320.745C199.924 322.063 201.453 323.392 202.962 324.741L216.584 336.886L230.201 349.026L246.39 329.817L262.563 310.613Z" fill="#D87D61" stroke="black" stroke-miterlimit="10" stroke-linecap="round"/>
<path d="M325.742 297.905C325.513 298.073 325.263 298.214 324.997 298.325C324.562 298.513 324.091 298.619 323.612 298.637C322.871 298.666 322.137 298.488 321.504 298.125C319.259 283.775 317.018 269.411 314.781 255.033C312.543 240.656 310.3 226.29 308.052 211.936L309.946 211.665L311.835 211.388C314.171 225.817 316.496 240.237 318.81 254.649C321.124 269.06 323.435 283.479 325.742 297.905Z" fill="#F6991A" stroke="#070707" stroke-miterlimit="10" stroke-linecap="round"/>
<path d="M333.323 247.157C333.072 248.979 332.822 250.8 332.575 252.622L331.805 258.086C330.374 249.65 328.943 241.214 327.512 232.778C326.082 224.342 324.649 215.906 323.215 207.469L324.921 206.354L326.633 205.243C327.743 212.226 328.856 219.211 329.973 226.198C331.09 233.184 332.207 240.171 333.323 247.157Z" fill="#F6991A" stroke="#070707" stroke-miterlimit="10" stroke-linecap="round"/>
<path d="M308.052 266.689C306.878 263.641 305.706 260.581 304.537 257.509L301.022 248.325C299.663 241.762 298.307 235.197 296.952 228.63C295.598 222.063 294.243 215.497 292.889 208.93C293.215 209.087 293.562 209.25 293.921 209.407C294.279 209.565 294.649 209.717 295.007 209.875C295.312 209.997 295.616 210.108 295.909 210.215L296.784 210.52C298.653 219.884 300.525 229.245 302.401 238.602L308.052 266.689Z" fill="#F6991A" stroke="#070707" stroke-miterlimit="10" stroke-linecap="round"/>
<path d="M135.117 330.592C135.867 325.531 136.618 320.47 137.369 315.41C138.12 310.349 138.869 305.288 139.616 300.227C138.869 298.03 138.12 295.835 137.369 293.641L135.117 287.055L103.423 274.152L71.7609 261.244L105.012 253.41L138.269 245.57C142.426 244.59 146.567 243.559 150.708 242.507C154.85 241.455 158.975 240.372 163.111 239.305C167.48 238.153 172.076 238.13 176.456 239.237C181.834 240.631 187.754 244.082 193.079 251.472L205.708 267.214L218.337 282.956L176.724 306.792L135.117 330.592Z" fill="#ECE7E1" stroke="black" stroke-miterlimit="10" stroke-linecap="round"/>
<path d="M115.986 278.978C117.579 278.679 119.068 278.066 120.335 277.187C122.632 275.672 125.16 272.924 126.095 267.918" stroke="black" stroke-miterlimit="10" stroke-linecap="round"/>
<path d="M192.289 251.369C186.948 244.033 181.005 240.615 175.616 239.227C171.222 238.132 166.613 238.157 162.231 239.299C158.083 240.358 153.94 241.427 149.786 242.476C145.632 243.524 141.484 244.532 137.314 245.514L134.232 246.228L131.149 246.948C131.823 253.496 134.086 259.793 137.752 265.32C141.23 270.568 146.131 274.776 151.913 277.478C156.035 279.358 160.506 280.407 165.055 280.562C168.101 280.67 171.15 280.426 174.138 279.837C175.356 282.418 176.573 285 177.791 287.584L181.448 295.336C181.847 296.31 182.296 297.264 182.794 298.194C183.361 299.264 184.003 300.295 184.715 301.279C187.535 305.371 191.879 308.234 196.828 309.262C201.68 310.312 206.762 309.459 210.973 306.887C212.305 306.063 213.523 305.076 214.599 303.952C215.65 302.845 216.56 301.618 217.306 300.297C219.116 297.085 219.883 293.414 219.507 289.769C219.135 286.113 217.691 282.639 215.348 279.76L203.821 265.578L192.289 251.369Z" fill="#040400" stroke="#040400" stroke-miterlimit="10"/>
<path d="M125.621 267.977C127.978 267.764 130.352 268.13 132.536 269.045C134.355 269.871 135.605 271.11 136.033 272.571C136.134 272.946 136.19 273.331 136.2 273.719C136.234 274.426 136.058 275.127 135.696 275.734C134.899 276.988 133.15 277.684 130.797 277.749C127.876 277.718 124.99 277.11 122.304 275.961C122.642 275.529 122.956 275.08 123.247 274.616C123.591 274.069 123.902 273.502 124.179 272.918C124.92 271.358 125.408 269.69 125.626 267.977H125.621Z" fill="#FC762B" stroke="#070707" stroke-miterlimit="10" stroke-linecap="round"/>
<path d="M147.576 258.702C147.576 259.413 147.373 260.102 147.002 260.651C146.631 261.2 146.114 261.576 145.541 261.714C144.967 261.853 144.372 261.745 143.857 261.41C143.341 261.075 142.937 260.532 142.714 259.876C142.49 259.219 142.461 258.488 142.631 257.808C142.801 257.128 143.159 256.541 143.646 256.146C144.132 255.751 144.716 255.574 145.297 255.644C145.879 255.713 146.423 256.026 146.836 256.529C147.072 256.814 147.258 257.153 147.385 257.526C147.512 257.899 147.577 258.299 147.576 258.702Z" fill="#ECE7E1" stroke="black" stroke-miterlimit="10" stroke-linecap="round"/>
<path d="M136.204 291.394C138.894 291.655 141.815 291.841 144.947 291.926C148.079 292.011 151.421 291.926 154.948 291.665C159.185 291.369 163.402 290.835 167.581 290.068C171.455 289.343 174.95 288.47 178.108 287.58L179.898 291.532L181.693 295.479C177.355 297.156 172.888 298.475 168.339 299.42C162.624 300.603 156.801 301.164 150.969 301.092C148.8 301.06 146.716 300.943 144.726 300.762C142.736 300.581 140.846 300.331 139.052 300.038L137.636 295.697L136.204 291.394Z" fill="#DBCAF4" stroke="black" stroke-miterlimit="10" stroke-linecap="round"/>
<path d="M236.027 215.844C236.357 215.208 236.682 214.546 236.997 213.846C237.311 213.147 237.62 212.415 237.914 211.646C238.747 209.46 239.394 207.204 239.847 204.905C240.222 202.989 240.464 201.049 240.57 199.099C241.41 199.154 242.24 199.319 243.038 199.59C244.074 199.931 245.006 200.54 245.742 201.358C247.345 203.196 247.733 206.08 247.131 208.836C246.528 211.592 244.935 214.178 242.582 215.433C241.392 216.05 240.066 216.348 238.731 216.298C237.814 216.264 236.906 216.112 236.027 215.844Z" fill="#D87D61" stroke="black" stroke-miterlimit="10" stroke-linecap="round"/>
<path d="M181.693 201.557L165.898 201.963L150.103 202.37L158.367 215.481L166.625 228.593L174.157 215.075L181.693 201.557Z" fill="#040400" stroke="#040400" stroke-miterlimit="10"/>
<path d="M165.266 313.377L177.558 303.617L189.854 293.858C192.829 291.594 195.906 289.478 199.087 287.508C202.27 285.542 205.558 283.745 208.937 282.125C213.064 280.147 217.61 278.293 221.773 277.291C225.937 276.29 229.718 276.141 232.315 277.584C234.16 277.183 236.071 277.18 237.917 277.575C239.762 277.971 241.498 278.756 243.004 279.875C243.695 280.39 244.334 280.97 244.91 281.606C245.629 281.724 246.332 281.922 247.005 282.197C248.195 282.682 249.264 283.411 250.141 284.337C251.019 285.262 251.683 286.361 252.09 287.56C252.345 288.294 252.503 289.057 252.561 289.83L256.667 294.253L260.773 298.681C261.711 299.504 262.325 300.624 262.506 301.845C262.595 302.335 262.579 302.838 262.459 303.322C262.339 303.805 262.118 304.259 261.81 304.655C261.406 305.061 260.913 305.371 260.368 305.561C259.824 305.752 259.242 305.818 258.668 305.754C257.951 305.701 257.254 305.504 256.618 305.177C255.982 304.849 255.421 304.397 254.97 303.849C254.049 302.892 253.017 302.044 251.896 301.321C250.111 300.159 248.111 299.349 246.01 298.938L245.711 298.881L245.418 298.835C243.936 298.604 242.427 298.588 240.941 298.789C239.452 298.993 237.997 299.39 236.615 299.97C231.484 302.087 226.531 304.595 221.799 307.47C216.479 310.778 212.137 314.662 212.755 318.257C212.824 318.647 212.947 319.026 213.122 319.382C213.328 319.802 213.589 320.194 213.897 320.548C213.897 320.548 214.609 321.822 216.751 322.089C218.893 322.356 222.459 321.704 228.183 317.79C228.602 317.502 229.016 317.209 229.424 316.906C229.833 316.603 230.236 316.3 230.634 315.987C231.916 314.98 233.353 314.18 234.892 313.619C236.73 313.018 238.736 312.992 240.176 314.723C240.682 315.085 241.076 315.577 241.315 316.144C241.554 316.711 241.629 317.332 241.532 317.939C241.26 320.142 239.092 323.553 231.493 328.351C229.786 329.423 228.086 330.505 226.392 331.598C224.695 332.687 223.009 333.786 221.333 334.911L206.235 345.061L191.132 355.17C186.82 348.205 182.508 341.239 178.196 334.274L165.266 313.377Z" fill="#D87D61" stroke="black" stroke-miterlimit="10" stroke-linecap="round"/>
<path d="M239.268 203.764C237.69 212.837 233.027 220.527 226.729 225.626C220.43 230.724 212.534 233.22 204.464 231.954C196.393 230.688 189.743 225.828 185.511 219.044C181.278 212.26 179.407 203.511 180.984 194.439C182.561 185.366 187.225 177.675 193.523 172.572C199.821 167.469 207.718 164.978 215.788 166.244C223.858 167.509 230.509 172.375 234.741 179.159C238.973 185.943 240.834 194.682 239.268 203.764Z" fill="#D87D61" stroke="black" stroke-miterlimit="10" stroke-linecap="round"/>
<path d="M218.311 197.561C218.226 198.041 217.95 198.47 217.544 198.755C217.29 198.931 216.996 199.044 216.687 199.083C216.378 199.122 216.064 199.087 215.772 198.98C215.481 198.873 215.221 198.698 215.016 198.47C214.811 198.242 214.666 197.969 214.596 197.673C214.525 197.378 214.53 197.071 214.611 196.778C214.691 196.486 214.845 196.217 215.058 195.996C215.271 195.775 215.536 195.608 215.831 195.51C216.126 195.413 216.441 195.387 216.749 195.436C216.995 195.476 217.231 195.562 217.442 195.69C217.654 195.818 217.838 195.986 217.983 196.183C218.128 196.38 218.232 196.604 218.288 196.84C218.344 197.077 218.352 197.321 218.311 197.561Z" fill="#040400"/>
<path d="M196.829 193.876C196.777 194.175 196.651 194.456 196.46 194.696C196.27 194.935 196.022 195.126 195.738 195.25C195.454 195.374 195.143 195.428 194.832 195.408C194.522 195.387 194.221 195.293 193.957 195.132C193.693 194.972 193.473 194.751 193.318 194.488C193.163 194.226 193.076 193.93 193.066 193.628C193.056 193.325 193.123 193.025 193.261 192.753C193.398 192.482 193.603 192.247 193.856 192.071C194.161 191.858 194.524 191.738 194.9 191.726C195.275 191.714 195.646 191.811 195.964 192.005C196.283 192.198 196.535 192.48 196.689 192.813C196.843 193.146 196.892 193.516 196.829 193.876Z" fill="#040400"/>
<path d="M202.33 202.785L200.874 200.978L199.423 199.171C199.403 199.149 199.39 199.122 199.385 199.093C199.38 199.064 199.384 199.035 199.396 199.008C199.407 198.98 199.425 198.956 199.449 198.937C199.473 198.919 199.502 198.906 199.532 198.902L201.714 198.743L203.896 198.58L204.796 193.322L205.701 188.039" stroke="black" stroke-miterlimit="10" stroke-linecap="round"/>
<path d="M209.492 207.993C208.958 208.656 208.179 209.201 207.239 209.568C206.252 209.954 205.145 210.157 204.02 210.159C202.789 210.164 201.579 209.934 200.513 209.493C199.489 209.075 198.657 208.452 198.12 207.701" stroke="black" stroke-miterlimit="10" stroke-linecap="round"/>
<path d="M214.546 186.81L219.6 188.651L224.655 190.496" stroke="black" stroke-miterlimit="10" stroke-linecap="round"/>
<path d="M252.454 289.287C252.454 289.287 250.326 287.473 244.826 287.585C239.325 287.697 230.463 289.719 217.073 297.412" stroke="black" stroke-miterlimit="10" stroke-linecap="round"/>
<path d="M200.647 185.581L195.59 186.812L190.538 188.039" stroke="black" stroke-miterlimit="10" stroke-linecap="round"/>
<path d="M213.283 291.267C213.283 291.267 218.15 288.762 224.527 286.278C230.904 283.793 238.807 281.34 244.872 281.439" stroke="black" stroke-miterlimit="10" stroke-linecap="round"/>
<path d="M225.851 206.557C225.661 207.539 225.076 208.435 224.197 209.091C223.318 209.748 222.198 210.124 221.029 210.157C219.86 210.189 218.714 209.876 217.787 209.27C216.859 208.664 216.207 207.802 215.941 206.833C215.676 205.864 215.814 204.846 216.332 203.954C216.85 203.061 217.715 202.349 218.781 201.939C219.847 201.529 221.046 201.446 222.176 201.704C223.305 201.962 224.295 202.546 224.975 203.355C225.754 204.282 226.069 205.433 225.851 206.557Z" fill="#FF6406" stroke="#070707" stroke-miterlimit="10" stroke-linecap="round"/>
<path d="M196.796 202.361C196.629 203.482 196.117 204.505 195.347 205.254C194.577 206.004 193.598 206.433 192.575 206.47C191.553 206.506 190.55 206.147 189.739 205.454C188.928 204.761 188.357 203.777 188.126 202.67C187.894 201.562 188.015 200.399 188.468 199.38C188.921 198.36 189.678 197.546 190.611 197.078C191.543 196.609 192.593 196.514 193.581 196.809C194.569 197.104 195.434 197.771 196.03 198.696C196.368 199.221 196.61 199.815 196.741 200.443C196.873 201.072 196.891 201.724 196.796 202.361Z" fill="#FF6406" stroke="#070707" stroke-miterlimit="10" stroke-linecap="round"/>
<path d="M184.756 182.913C188.826 183.639 192.988 183.77 197.099 183.3C204.109 182.536 212.795 179.848 219.507 172.17C220.803 176.252 222.509 180.204 224.601 183.972C228.039 190.163 233.277 196.925 240.468 199.221C241.322 199.28 242.164 199.451 242.969 199.731C243.774 199.972 244.52 200.367 245.16 200.892C245.8 201.417 246.323 202.061 246.695 202.786C246.695 202.786 250.746 194.349 249.777 184.456C248.808 174.563 242.82 163.168 222.743 157.282C216.464 155.713 209.873 155.689 203.582 157.211C193.346 159.756 181.817 167.546 176.639 188.371C177.199 188.13 177.789 187.959 178.395 187.862C179.721 187.611 181.094 187.738 182.344 188.229L183.569 185.586L184.756 182.913Z" fill="#040400" stroke="#040400" stroke-miterlimit="10"/>
<path d="M195.494 208.49C195.522 208.354 195.542 208.216 195.554 208.077C195.554 207.936 195.581 207.794 195.587 207.658C195.601 207.267 195.588 206.876 195.549 206.486C195.511 206.096 195.457 205.711 195.397 205.326C195.251 204.335 195.077 203.345 194.882 202.365C194.687 201.386 194.47 200.401 194.232 199.433C194.211 199.351 194.167 199.276 194.107 199.218C194.047 199.16 193.972 199.122 193.892 199.106C193.811 199.091 193.728 199.099 193.652 199.131C193.577 199.163 193.511 199.217 193.463 199.286C193.089 199.852 192.721 200.418 192.379 200.984C192.038 201.55 191.675 202.145 191.339 202.728C190.938 203.424 190.51 204.137 190.147 204.884C189.772 205.613 189.502 206.395 189.345 207.205C189.279 207.596 189.259 207.993 189.286 208.388C189.316 208.779 189.408 209.161 189.556 209.521C189.794 210.052 190.169 210.503 190.64 210.823C191.097 211.155 191.632 211.349 192.188 211.382C192.743 211.416 193.297 211.289 193.788 211.015C194.505 210.639 195.057 209.991 195.332 209.204C195.405 208.971 195.459 208.732 195.494 208.49Z" fill="#84A1E5" stroke="#070707" stroke-miterlimit="10" stroke-linecap="round"/>
<path d="M209.492 285.122C211.183 284.395 212.986 283.662 214.905 282.939C216.825 282.216 218.851 281.501 220.989 280.819C222.989 280.177 224.935 279.607 226.812 279.105C228.689 278.603 230.503 278.156 232.236 277.749" stroke="black" stroke-miterlimit="10" stroke-linecap="round"/>
<path d="M262.562 310.93L283.412 327.52L304.261 344.11" stroke="black" stroke-miterlimit="10" stroke-linecap="round"/>
<path d="M342.113 170.982C342.643 182.004 339.343 192.176 333.537 199.706C327.73 207.235 319.44 212.123 310.037 212.581C300.634 213.04 291.898 209.012 285.367 202.095C278.835 195.178 274.539 185.388 273.993 174.366C273.447 163.344 276.769 153.178 282.57 145.648C288.37 138.118 296.666 133.225 306.069 132.772C315.472 132.319 324.208 136.346 330.729 143.263C337.25 150.18 341.567 159.961 342.113 170.982Z" fill="#F3DDA3" stroke="black" stroke-miterlimit="10" stroke-linecap="round"/>
<path d="M310.574 168.89C310.601 169.253 310.513 169.615 310.323 169.93C310.133 170.244 309.85 170.497 309.51 170.654C309.169 170.812 308.788 170.868 308.414 170.814C308.041 170.76 307.692 170.6 307.415 170.353C307.043 170.025 306.819 169.57 306.792 169.085C306.767 168.721 306.856 168.358 307.048 168.043C307.24 167.729 307.526 167.477 307.869 167.321C308.211 167.165 308.594 167.112 308.968 167.169C309.342 167.226 309.69 167.39 309.966 167.64C310.331 167.963 310.55 168.412 310.574 168.89Z" fill="#040400"/>
<path d="M287.83 173.811C287.858 174.296 287.689 174.774 287.359 175.14C287.191 175.32 286.989 175.466 286.764 175.57C286.538 175.674 286.293 175.734 286.044 175.747C285.795 175.76 285.545 175.724 285.31 175.643C285.074 175.562 284.857 175.437 284.672 175.275C284.486 175.112 284.336 174.916 284.228 174.697C284.121 174.479 284.059 174.242 284.046 174C284.033 173.758 284.069 173.515 284.153 173.287C284.237 173.059 284.366 172.849 284.533 172.669C284.873 172.308 285.344 172.092 285.847 172.066C286.096 172.052 286.345 172.087 286.58 172.167C286.815 172.248 287.032 172.373 287.216 172.535C287.401 172.698 287.551 172.894 287.657 173.113C287.763 173.332 287.823 173.569 287.834 173.811H287.83Z" fill="#040400"/>
<path d="M296.679 180.665L294.205 179.39L291.73 178.072C291.699 178.056 291.673 178.031 291.655 178.002C291.636 177.973 291.626 177.94 291.625 177.907C291.623 177.872 291.632 177.838 291.649 177.808C291.667 177.778 291.693 177.753 291.724 177.735L294.045 176.589L296.365 175.443L294.789 169.449L293.213 163.46" stroke="black" stroke-miterlimit="10" stroke-linecap="round"/>
<path d="M306.788 184.352C306.543 185.648 305.966 186.846 305.121 187.813C304.235 188.832 303.125 189.599 301.891 190.042C300.54 190.531 299.092 190.627 297.696 190.321C296.356 190.04 295.123 189.343 294.152 188.317" stroke="black" stroke-miterlimit="10" stroke-linecap="round"/>
<path d="M302.997 157.316L309.315 156.701L315.633 156.087" stroke="black" stroke-miterlimit="10" stroke-linecap="round"/>
<path d="M289.098 159.774L282.78 162.231L276.462 164.689" stroke="black" stroke-miterlimit="10" stroke-linecap="round"/>
<path d="M340.829 179.436C340.996 178.413 341.136 177.298 341.238 176.122C341.34 174.945 341.394 173.708 341.389 172.403C341.386 170.138 341.206 167.877 340.851 165.637C340.561 163.788 340.157 161.957 339.641 160.154C340.758 159.884 341.908 159.757 343.061 159.775C344.63 159.774 346.164 160.215 347.469 161.044C349.904 162.675 351.066 165.775 351.012 168.951C350.958 172.127 349.695 175.385 347.249 177.334C346.235 178.135 345.05 178.716 343.776 179.037C342.815 179.286 341.825 179.42 340.829 179.436Z" fill="#F3DDA3" stroke="black" stroke-miterlimit="10" stroke-linecap="round"/>
<path d="M321.944 177.968C322.008 179.104 321.615 180.224 320.831 181.137C320.047 182.05 318.921 182.7 317.645 182.976C316.369 183.252 315.021 183.137 313.833 182.65C312.644 182.164 311.687 181.336 311.124 180.308C310.562 179.28 310.43 178.115 310.749 177.012C311.069 175.909 311.821 174.936 312.878 174.259C313.934 173.582 315.23 173.242 316.544 173.298C317.857 173.353 319.108 173.801 320.083 174.565C320.638 174.998 321.088 175.521 321.407 176.106C321.727 176.69 321.909 177.323 321.944 177.968Z" fill="#FF6406" stroke="#070707" stroke-miterlimit="10" stroke-linecap="round"/>
<path d="M290.355 184.695C290.419 185.973 290.026 187.233 289.242 188.261C288.458 189.289 287.332 190.02 286.056 190.331C284.78 190.642 283.433 190.512 282.243 189.965C281.054 189.418 280.097 188.487 279.535 187.33C278.972 186.173 278.84 184.863 279.16 183.622C279.48 182.38 280.232 181.286 281.289 180.524C282.346 179.762 283.642 179.38 284.956 179.443C286.27 179.506 287.52 180.01 288.495 180.87C289.049 181.356 289.499 181.945 289.818 182.602C290.138 183.258 290.32 183.97 290.355 184.695Z" fill="#FF6406" stroke="#070707" stroke-miterlimit="10" stroke-linecap="round"/>
<path d="M277.725 190.414C277.355 189.503 276.991 188.541 276.668 187.532C276.346 186.524 275.992 185.485 275.685 184.364C275.024 181.994 274.519 179.585 274.174 177.152C273.884 175.075 273.707 172.984 273.645 170.888C272.676 170.793 271.699 170.823 270.738 170.975C269.491 171.169 268.319 171.677 267.339 172.449C265.172 174.204 264.697 177.347 265.378 180.51C266.06 183.673 267.9 186.867 270.357 188.699C271.592 189.606 273.049 190.185 274.586 190.378C275.626 190.523 276.682 190.535 277.725 190.414Z" fill="#F3DDA3" stroke="black" stroke-miterlimit="10" stroke-linecap="round"/>
<path d="M290.361 143.832C290.353 146.96 289.23 149.988 287.184 152.4C285.137 154.813 282.294 156.46 279.139 157.063C275.983 157.665 272.71 157.185 269.878 155.703C267.046 154.222 264.83 151.831 263.607 148.939C262.384 146.046 262.23 142.831 263.171 139.84C264.113 136.85 266.091 134.269 268.77 132.539C271.448 130.808 274.661 130.034 277.86 130.348C281.06 130.663 284.048 132.047 286.316 134.264C287.604 135.521 288.625 137.014 289.319 138.656C290.014 140.298 290.368 142.057 290.361 143.832Z" fill="#040400" stroke="#040400" stroke-miterlimit="10"/>
<path d="M315.633 134.582C315.633 138.989 314.061 143.26 311.187 146.666C308.312 150.072 304.311 152.404 299.867 153.263C295.423 154.123 290.81 153.457 286.814 151.379C282.818 149.302 279.686 145.941 277.952 141.869C276.219 137.798 275.99 133.268 277.306 129.051C278.621 124.834 281.4 121.191 285.167 118.742C288.935 116.294 293.459 115.193 297.968 115.625C302.478 116.057 306.693 117.996 309.897 121.113C311.719 122.879 313.164 124.978 314.149 127.29C315.133 129.602 315.638 132.08 315.633 134.582Z" fill="#040400" stroke="#040400" stroke-miterlimit="10"/>
<path d="M347.223 134.555C347.229 138.961 345.664 143.234 342.795 146.644C339.925 150.054 335.929 152.392 331.486 153.258C327.044 154.124 322.43 153.465 318.431 151.393C314.432 149.322 311.295 145.966 309.554 141.898C307.814 137.829 307.578 133.3 308.886 129.081C310.194 124.862 312.966 121.215 316.729 118.76C320.493 116.306 325.014 115.197 329.524 115.621C334.034 116.046 338.253 117.978 341.462 121.089C343.288 122.853 344.738 124.951 345.726 127.262C346.715 129.573 347.224 132.052 347.223 134.555Z" fill="#040400" stroke="#040400" stroke-miterlimit="10"/>
<path d="M152.367 111.263C150.177 121.269 151.684 131.083 155.897 138.86C160.109 146.637 167.027 152.377 175.65 154.233C184.273 156.089 192.964 153.716 200.049 148.374C207.134 143.033 212.619 134.729 214.808 124.723C216.998 114.717 215.497 104.898 211.279 97.1212C207.061 89.3443 200.153 83.6047 191.53 81.7483C182.907 79.892 174.217 82.2654 167.132 87.6069C160.046 92.9483 154.562 101.253 152.367 111.263Z" fill="#F2B3C1" stroke="black" stroke-miterlimit="10" stroke-linecap="round"/>
<path d="M325.742 151.89C326.073 155.127 326.917 158.288 328.24 161.252C330.344 165.706 334.16 169.723 341.011 167.945C341.011 167.945 340.883 166.82 340.658 165.379C340.435 163.866 340.12 162.368 339.713 160.895C339.713 160.895 340.224 160.775 340.975 160.677C341.935 160.548 342.905 160.515 343.871 160.579C344.222 158.95 344.455 157.297 344.566 155.633C344.871 151.674 344.637 147.692 343.871 143.798L334.809 147.841L325.742 151.89Z" fill="#040400" stroke="#040400" stroke-miterlimit="10"/>
<path d="M354.804 310.801L348.056 337.902L341.312 365.002C333.516 363.06 325.943 360.343 318.712 356.894C313.509 354.4 308.515 351.51 303.775 348.251C300.549 346.046 297.492 343.613 294.629 340.971C290.172 336.862 286.254 332.226 282.966 327.172C281.58 324.946 280.373 322.619 279.356 320.21C277.726 316.318 276.46 311.598 277.894 308.308C278.052 307.92 278.255 307.551 278.499 307.208C278.855 306.693 279.342 306.278 279.913 306.005C280.869 305.613 281.938 305.57 282.924 305.881C283.719 306.092 284.468 306.44 285.137 306.909C286.8 308.186 288.277 309.679 289.526 311.346C290.813 313.002 291.97 314.771 293.1 316.457C293.951 317.812 294.962 319.065 296.111 320.19C297.378 321.341 298.855 322.076 300.385 321.434C300.674 321.306 300.928 321.112 301.126 320.868C301.328 320.624 301.486 320.347 301.593 320.051C302.645 317.12 301.593 313.136 300.264 309.881C299.443 307.887 298.464 305.958 297.336 304.113C295.434 301.287 293.291 298.625 290.929 296.154C288.217 293.223 284.795 289.814 280.254 285.305C278.537 283.699 276.944 281.97 275.487 280.133C274.263 278.447 273.595 276.832 274.11 275.372C274.349 274.729 274.768 274.164 275.319 273.743C275.823 273.346 276.38 273.019 276.975 272.771C275.818 271.755 275.072 270.367 274.872 268.858C274.777 268.252 274.818 267.634 274.992 267.045C275.167 266.456 275.47 265.912 275.881 265.45C276.6 264.768 277.551 264.373 278.551 264.339C279.121 264.297 279.693 264.326 280.254 264.426C279.686 263.32 279.439 262.082 279.54 260.848C279.574 259.946 279.915 259.081 280.509 258.391C281.103 257.701 281.917 257.225 282.819 257.038C283.272 256.93 283.736 256.87 284.202 256.858C284.644 256.85 285.085 256.906 285.51 257.023C286.084 257.191 286.647 257.392 287.197 257.624C287.828 257.881 288.564 258.19 289.384 258.56C290.204 258.93 291.108 259.367 292.085 259.871C292.438 259.516 292.811 259.09 293.205 258.678C293.573 258.277 293.988 257.918 294.44 257.609C296.353 256.396 298.755 256.91 301.042 257.989C303.129 259.08 305.115 260.348 306.975 261.779C309.794 263.781 312.432 266.017 314.859 268.462C316.271 269.876 317.604 271.362 318.854 272.915C326.039 281.845 330.144 287.311 333.25 291.239C335.786 294.602 338.599 297.757 341.659 300.673C343.11 302.046 344.918 303.655 347.11 305.388C349.571 307.33 352.139 309.137 354.804 310.801Z" fill="#D87D61" stroke="black" stroke-miterlimit="10" stroke-linecap="round"/>
<path d="M276.462 272.833C278.574 274.183 280.781 275.699 283.073 277.412C285.364 279.125 287.719 281.046 290.111 283.122C293.195 285.85 296.123 288.742 298.882 291.787C301.437 294.616 303.634 297.341 305.524 299.869" stroke="black" stroke-miterlimit="10" stroke-linecap="round"/>
<path d="M280.253 264.231C282.627 265.684 285.17 267.379 287.818 269.32C290.467 271.261 293.227 273.485 296.013 275.988C299.235 278.879 302.279 281.961 305.128 285.216C307.771 288.216 309.971 291.096 311.842 293.725" stroke="black" stroke-miterlimit="10" stroke-linecap="round"/>
<path d="M291.625 260.544C294.184 262.474 296.888 264.649 299.689 267.138C302.49 269.626 305.323 272.366 308.172 275.425C310.14 277.533 311.935 279.617 313.607 281.649C315.279 283.681 316.779 285.666 318.16 287.58" stroke="black" stroke-miterlimit="10" stroke-linecap="round"/>
<path d="M415.456 328.134L385.128 319.532L354.804 310.93" stroke="black" stroke-miterlimit="10" stroke-linecap="round"/>
<path d="M151.184 120.448C151.184 119.477 151.241 118.443 151.333 117.363C151.426 116.284 151.564 115.127 151.764 113.934C152.11 111.858 152.609 109.811 153.258 107.81C153.794 106.155 154.428 104.535 155.158 102.956C154.225 102.548 153.243 102.265 152.237 102.113C150.872 101.882 149.47 102.061 148.207 102.627C145.836 103.768 144.357 106.442 143.921 109.363C143.485 112.283 144.09 115.451 145.902 117.59C146.666 118.467 147.61 119.169 148.669 119.646C149.473 120.013 150.317 120.282 151.184 120.448Z" fill="#F2B3C1" stroke="black" stroke-miterlimit="10" stroke-linecap="round"/>
<path d="M376.285 282.665L380.708 301.101L385.131 319.532" stroke="black" stroke-miterlimit="10" stroke-linecap="round"/>
<path d="M156.56 99.4894C159.627 101.184 163.057 102.198 166.592 102.454C172.567 102.924 180.465 101.356 188.144 93.1807C188.713 96.5682 189.985 99.8137 191.887 102.727C193.788 105.641 196.28 108.164 199.218 110.149C204.672 113.791 211.263 115.208 217.137 113.721C221.534 112.608 225.454 109.896 228.364 106.162C231.425 102.16 233.208 97.4011 233.5 92.4572C233.451 87.0196 231.592 81.7371 228.189 77.371C225.07 73.3191 220.545 70.4512 215.416 69.2764C210.788 68.3524 205.97 68.8851 201.687 70.7941C199.354 71.7791 197.177 73.0699 195.218 74.6289C192.127 72.9868 188.796 71.7932 185.335 71.0876C179.811 69.9442 172.588 69.7317 165.211 73.1416C159.633 75.7406 155.007 79.88 151.934 85.0203C148.786 90.2713 147.289 96.2737 147.622 102.312C148.002 102.161 148.395 102.038 148.795 101.943C150.199 101.6 151.673 101.612 153.071 101.978C153.673 102.136 154.256 102.351 154.813 102.621C154.922 102.388 155.039 102.15 155.163 101.908C155.285 101.67 155.418 101.402 155.556 101.174C155.694 100.946 155.891 100.577 156.055 100.294C156.22 100.01 156.39 99.7474 156.56 99.4894Z" fill="#ECE7E1" stroke="black" stroke-miterlimit="10" stroke-linecap="round"/>
<path d="M209.492 139.598C209.981 138.786 210.47 137.932 210.948 137.025C211.427 136.117 211.9 135.167 212.357 134.169C213.344 132.021 214.191 129.81 214.891 127.549C215.486 125.62 215.978 123.66 216.363 121.677C217.283 121.734 218.192 121.914 219.066 122.211C220.196 122.587 221.212 123.252 222.015 124.144C223.766 126.156 223.719 129.22 222.588 132.124C221.458 135.028 219.245 137.777 216.663 139.171C215.362 139.839 213.914 140.161 212.457 140.105C211.452 140.062 210.455 139.892 209.492 139.598Z" fill="#F2B3C1" stroke="black" stroke-miterlimit="10" stroke-linecap="round"/>
<path d="M383.713 214.177C384.044 212.943 384.238 211.628 384.469 210.365C384.633 209.208 384.892 208.066 385.245 206.95C385.89 205.141 386.64 202.935 387.794 201.151C388.948 199.367 390.501 198.017 392.746 197.92C392.746 197.92 393.696 197.884 394.54 199.179C395.385 200.473 396.114 203.103 395.689 208.443C395.402 211.973 394.714 215.462 393.638 218.845C392.558 222.232 391.111 225.498 389.321 228.588L384.657 236.681L379.989 244.763C379.506 245.602 379.132 246.495 378.877 247.423C378.623 248.352 378.506 249.311 378.531 250.272C378.496 251.602 378.938 252.902 379.779 253.952C380.681 254.971 382.187 255.572 384.615 255.358C383.55 256.786 382.651 258.324 381.935 259.945C380.886 262.431 380.361 265.316 382.606 266.891C383.547 267.615 384.729 267.977 385.927 267.91C387.941 267.787 390.648 266.411 393.444 261.392C393.444 261.392 394.808 263.94 397.147 264.852C399.487 265.764 402.786 264.995 406.668 258.355C407.172 259.05 407.877 259.586 408.694 259.894C409.51 260.202 410.402 260.27 411.258 260.087C414.222 259.43 418.528 255.715 423.895 243.494C424.643 241.796 425.412 240.097 426.203 238.398C426.993 236.7 427.794 235.016 428.605 233.348C431.228 227.946 435.036 218.406 435.603 208.107C436.169 197.808 433.473 186.749 423.013 178.305C420.733 176.45 418.169 174.952 415.412 173.866C412.664 172.785 409.742 172.179 406.778 172.078C402.041 171.913 397.36 173.113 393.323 175.528C388.602 178.331 383.881 183.172 379.805 191.203C378.276 194.28 376.967 197.456 375.887 200.708C374.145 205.982 372.839 212.311 374.581 216.505C374.989 217.499 375.75 218.318 376.726 218.814C377.205 219.062 377.731 219.214 378.271 219.261C378.812 219.308 379.356 219.25 379.873 219.089L380.041 219.033L380.209 218.972C381.156 218.589 381.956 217.928 382.496 217.081C383.055 216.18 383.465 215.2 383.713 214.177Z" fill="#F2B3C1" stroke="black" stroke-miterlimit="10" stroke-linecap="round"/>
<path d="M401.557 223.677C400.071 227.05 398.417 230.531 396.593 234.121C394.761 237.704 392.744 241.382 390.526 245.13C389.427 246.988 388.322 248.791 387.209 250.539C386.095 252.286 384.981 253.987 383.867 255.629" stroke="black" stroke-miterlimit="10" stroke-linecap="round"/>
<path d="M410.402 227.364C410.402 227.364 407.352 234.004 403.6 241.621C399.849 249.239 395.459 257.849 392.712 261.773" stroke="black" stroke-miterlimit="10" stroke-linecap="round"/>
<path d="M419.247 232.279L412.929 245.797L406.611 259.315" stroke="black" stroke-miterlimit="10" stroke-linecap="round"/>
<path d="M291.568 86.3505C292.094 96.3508 288.941 105.562 283.47 112.408C277.999 119.253 270.153 123.677 261.271 124.102C252.389 124.527 244.133 120.856 237.979 114.577C231.825 108.298 227.752 99.4096 227.237 89.4193C226.722 79.4291 229.865 70.2074 235.336 63.3568C240.806 56.5062 248.653 52.0874 257.534 51.6628C266.416 51.2381 274.667 54.9086 280.826 61.1878C286.986 67.4671 291.053 76.3451 291.568 86.3505Z" fill="#F2B3C1" stroke="black" stroke-miterlimit="10" stroke-linecap="round"/>
<path d="M263.823 87.7959C263.851 88.2215 263.675 88.641 263.326 88.9828C262.977 89.3247 262.477 89.5679 261.91 89.6709C261.343 89.774 260.745 89.7306 260.217 89.5482C259.689 89.3658 259.264 89.0556 259.014 88.6703C258.765 88.2851 258.705 87.8486 258.847 87.4352C258.989 87.0218 259.323 86.657 259.791 86.4028C260.26 86.1486 260.836 86.0208 261.419 86.041C262.003 86.0613 262.559 86.2284 262.992 86.514C263.24 86.6772 263.44 86.8745 263.583 87.0945C263.726 87.3144 263.807 87.5528 263.823 87.7959Z" fill="#040400"/>
<path d="M242.344 93.935C242.353 94.1781 242.313 94.4206 242.226 94.6485C242.139 94.8764 242.007 95.0852 241.837 95.2629C241.629 95.4879 241.368 95.6593 241.076 95.7617C240.784 95.8642 240.471 95.8947 240.164 95.8505C239.857 95.8063 239.566 95.6887 239.317 95.5082C239.068 95.3277 238.868 95.0898 238.736 94.8157C238.603 94.5416 238.541 94.2397 238.557 93.9368C238.572 93.6339 238.663 93.3393 238.823 93.0792C238.982 92.8191 239.205 92.6015 239.471 92.4457C239.737 92.2899 240.038 92.2007 240.348 92.186C240.595 92.1733 240.842 92.2086 241.076 92.2897C241.309 92.3709 241.524 92.4963 241.707 92.6588C241.891 92.8214 242.04 93.0178 242.146 93.2368C242.251 93.4558 242.312 93.6931 242.324 93.935H242.344Z" fill="#040400"/>
<path d="M252.454 99.557L249.98 98.3723L247.513 97.1875C247.48 97.1718 247.453 97.1493 247.433 97.1219C247.413 97.0945 247.402 97.0633 247.399 97.0309C247.4 96.9995 247.41 96.9687 247.427 96.9413C247.445 96.914 247.47 96.8909 247.501 96.8744L249.819 95.8305L252.144 94.7867L250.546 89.1552L248.973 83.5812" stroke="black" stroke-miterlimit="10" stroke-linecap="round"/>
<path d="M262.562 100.786C262.442 101.958 262.005 103.073 261.299 104.004C260.561 104.986 259.595 105.764 258.488 106.267C257.279 106.82 255.947 107.033 254.63 106.885C253.368 106.751 252.172 106.241 251.19 105.418" stroke="black" stroke-miterlimit="10" stroke-linecap="round"/>
<path d="M254.981 81.1233L261.299 80.5134L267.617 79.8944" stroke="black" stroke-miterlimit="10" stroke-linecap="round"/>
<path d="M243.609 83.5812L237.925 86.039L232.236 88.4968" stroke="black" stroke-miterlimit="10" stroke-linecap="round"/>
<path d="M291.41 94.6413C291.56 93.6717 291.684 92.6348 291.772 91.5304C291.86 90.426 291.912 89.2646 291.912 88.041C291.911 84.1638 291.39 80.3044 290.361 76.567C291.354 76.3126 292.376 76.1923 293.4 76.2092C294.794 76.2086 296.158 76.6236 297.317 77.4017C299.482 78.9261 300.515 81.8296 300.469 84.8057C300.422 87.7818 299.296 90.8356 297.141 92.6607C296.236 93.4141 295.178 93.9607 294.041 94.2628C293.182 94.4959 292.299 94.623 291.41 94.6413Z" fill="#F2B3C1" stroke="black" stroke-miterlimit="10" stroke-linecap="round"/>
<path d="M276.456 93.1675C276.514 94.3035 276.165 95.424 275.469 96.338C274.773 97.2521 273.773 97.9031 272.639 98.1801C271.504 98.4571 270.306 98.343 269.249 97.8572C268.191 97.3714 267.34 96.544 266.839 95.5159C266.339 94.4879 266.221 93.3229 266.504 92.2195C266.788 91.1161 267.457 90.1426 268.396 89.4648C269.335 88.7871 270.487 88.447 271.655 88.5027C272.823 88.5584 273.935 89.0063 274.802 89.7701C275.294 90.2023 275.694 90.725 275.978 91.3081C276.262 91.8912 276.424 92.5231 276.456 93.1675Z" fill="#FF6406" stroke="#070707" stroke-miterlimit="10" stroke-linecap="round"/>
<path d="M244.866 104.228C244.924 105.364 244.576 106.484 243.88 107.398C243.184 108.312 242.183 108.963 241.049 109.24C239.915 109.517 238.717 109.403 237.659 108.917C236.602 108.432 235.75 107.604 235.25 106.576C234.749 105.548 234.631 104.383 234.915 103.28C235.198 102.176 235.867 101.203 236.806 100.525C237.745 99.8472 238.897 99.5072 240.065 99.5629C241.233 99.6186 242.346 100.066 243.212 100.83C243.705 101.263 244.104 101.785 244.388 102.368C244.672 102.951 244.834 103.583 244.866 104.228Z" fill="#FF6406" stroke="#070707" stroke-miterlimit="10" stroke-linecap="round"/>
<path d="M230.973 104.399C230.64 103.544 230.317 102.644 230.004 101.699C229.695 100.754 229.396 99.762 229.121 98.7287C228.03 94.6068 227.416 90.3639 227.294 86.0904C226.424 86.0005 225.546 86.0284 224.683 86.1735C223.566 86.3503 222.511 86.8263 221.623 87.5547C219.672 89.1955 219.247 92.1447 219.861 95.1148C220.475 98.0848 222.128 101.076 224.354 102.805C225.474 103.651 226.783 104.187 228.158 104.362C229.091 104.496 230.037 104.508 230.973 104.399Z" fill="#F2B3C1" stroke="black" stroke-miterlimit="10" stroke-linecap="round"/>
<path d="M226.627 85.9236C226.627 85.9236 231.886 85.6576 238.26 82.3105C244.635 78.9633 252.141 72.5349 256.583 60.205C258.675 64.1395 261.489 67.6966 264.895 70.7133C270.463 75.586 278.861 79.706 290.173 76.685C290.408 76.6248 290.659 76.5696 290.926 76.5244C291.193 76.4792 291.46 76.4341 291.775 76.399C292.188 76.353 292.603 76.3278 293.019 76.3237C293.403 76.3237 293.761 76.3237 294.087 76.3538C294.299 72.7057 293.995 69.0473 293.184 65.4742C291.999 60.2954 289.447 54.2384 284.018 49.3104C277.078 42.9824 267.335 40.1521 257.661 40.6188C247.987 41.0855 238.351 44.8492 231.566 51.7092C224.903 58.4487 222.709 66.5782 222.239 73.2525C221.928 77.5383 222.27 81.844 223.253 86.039C223.459 85.9864 223.668 85.9445 223.878 85.9136C224.118 85.8731 224.361 85.8446 224.604 85.8282C224.974 85.8034 225.345 85.8034 225.715 85.8282C226.021 85.8437 226.325 85.8755 226.627 85.9236Z" fill="#040400" stroke="#040400" stroke-miterlimit="10"/>
<path d="M290.361 23.3645C290.361 28.4822 288.537 33.4415 285.199 37.3975C281.86 41.3535 277.215 44.0614 272.054 45.0598C266.893 46.0583 261.536 45.2854 256.895 42.873C252.254 40.4605 248.617 36.5577 246.604 31.8296C244.59 27.1015 244.324 21.8406 245.852 16.9433C247.379 12.046 250.605 7.81536 254.981 4.97214C259.356 2.12891 264.609 0.849075 269.846 1.35069C275.083 1.8523 279.979 4.10433 283.7 7.72306C285.815 9.77474 287.493 12.2128 288.636 14.8971C289.779 17.5814 290.365 20.459 290.361 23.3645Z" fill="#040400" stroke="#040400" stroke-miterlimit="10"/>
<path d="M174.153 116.988C174.049 117.465 174.142 117.962 174.414 118.372C174.685 118.783 175.112 119.072 175.602 119.177C175.968 119.255 176.35 119.225 176.699 119.092C177.049 118.959 177.349 118.727 177.563 118.428C177.777 118.128 177.895 117.774 177.902 117.409C177.909 117.044 177.804 116.686 177.601 116.379C177.398 116.072 177.106 115.831 176.762 115.685C176.417 115.54 176.037 115.497 175.668 115.563C175.298 115.628 174.957 115.798 174.688 116.052C174.418 116.305 174.232 116.631 174.153 116.988Z" fill="#040400"/>
<path d="M198.162 124.368C198.056 124.844 198.15 125.341 198.422 125.75C198.694 126.159 199.122 126.447 199.613 126.55C199.856 126.602 200.107 126.607 200.352 126.565C200.597 126.522 200.83 126.433 201.04 126.303C201.249 126.173 201.429 126.004 201.571 125.805C201.712 125.607 201.812 125.384 201.864 125.148C201.919 124.911 201.925 124.667 201.882 124.428C201.84 124.189 201.748 123.961 201.614 123.756C201.48 123.552 201.305 123.375 201.1 123.236C200.895 123.098 200.663 123 200.419 122.948C200.174 122.897 199.922 122.893 199.676 122.936C199.43 122.98 199.195 123.07 198.985 123.202C198.775 123.334 198.595 123.505 198.453 123.705C198.312 123.906 198.213 124.131 198.162 124.368Z" fill="#040400"/>
<path d="M186.747 127.822L189.216 126.701L191.69 125.586C191.721 125.571 191.748 125.549 191.767 125.523C191.786 125.496 191.798 125.465 191.801 125.434C191.804 125.401 191.797 125.367 191.781 125.338C191.764 125.308 191.739 125.283 191.707 125.265L189.502 124.124L187.268 122.982L189.023 117.412L190.777 111.846" stroke="black" stroke-miterlimit="10" stroke-linecap="round"/>
<path d="M176.639 133.966C176.895 135.047 177.445 136.033 178.227 136.816C179.052 137.644 180.07 138.251 181.187 138.581C182.402 138.945 183.69 138.98 184.922 138.68C186.103 138.396 187.176 137.773 188.011 136.885" stroke="black" stroke-miterlimit="10" stroke-linecap="round"/>
<path d="M184.22 105.702L178.531 105.087L172.848 104.473" stroke="black" stroke-miterlimit="10" stroke-linecap="round"/>
<path d="M200.647 111.846L205.703 114.304L210.755 116.762" stroke="black" stroke-miterlimit="10" stroke-linecap="round"/>
<path d="M164.118 125.548C163.87 126.66 164.025 127.821 164.558 128.833C165.091 129.846 165.968 130.647 167.041 131.101C168.113 131.554 169.314 131.632 170.439 131.321C171.564 131.01 172.543 130.329 173.21 129.395C173.877 128.46 174.189 127.33 174.095 126.196C174 125.062 173.505 123.996 172.692 123.178C171.879 122.36 170.8 121.841 169.639 121.71C168.477 121.579 167.304 121.844 166.321 122.46C165.195 123.165 164.403 124.276 164.118 125.548Z" fill="#FF6406" stroke="#070707" stroke-miterlimit="10" stroke-linecap="round"/>
<path d="M194.443 134.155C194.196 135.266 194.352 136.427 194.886 137.438C195.419 138.45 196.297 139.251 197.369 139.704C198.441 140.157 199.642 140.235 200.766 139.923C201.891 139.612 202.87 138.931 203.536 137.997C204.203 137.063 204.515 135.933 204.421 134.799C204.327 133.666 203.832 132.6 203.02 131.781C202.208 130.963 201.129 130.444 199.968 130.313C198.807 130.181 197.634 130.445 196.651 131.06C196.092 131.409 195.609 131.862 195.23 132.393C194.851 132.925 194.584 133.523 194.443 134.155Z" fill="#FF6406" stroke="#070707" stroke-miterlimit="10" stroke-linecap="round"/>
<path d="M207.015 119.412L203.943 118.558L200.875 117.705C200.006 117.464 199.098 117.394 198.202 117.498C197.304 117.602 196.436 117.882 195.648 118.32C195.089 118.627 194.577 119.01 194.128 119.458C193.689 119.904 193.313 120.407 193.011 120.953L189.865 119.996L186.719 119.044C186.887 117.453 186.481 115.855 185.572 114.53C184.662 113.206 183.309 112.24 181.749 111.803L177.806 110.701L173.874 109.605C172.131 109.16 170.281 109.406 168.721 110.291C167.16 111.176 166.013 112.629 165.524 114.338C165.036 116.047 165.246 117.877 166.109 119.436C166.972 120.994 168.419 122.157 170.141 122.675L174.073 123.772L178 124.863C178.281 124.941 178.567 125.001 178.855 125.044C179.742 125.175 180.647 125.133 181.518 124.92C182.117 124.774 182.694 124.549 183.233 124.253C183.847 123.914 184.404 123.483 184.884 122.975C185.361 122.474 185.757 121.903 186.059 121.284L189.142 122.22L192.219 123.151C192.091 123.901 192.091 124.667 192.219 125.417C192.355 126.17 192.618 126.895 192.995 127.563C193.438 128.34 194.031 129.024 194.741 129.575C195.449 130.129 196.262 130.537 197.132 130.775L200.204 131.629L203.277 132.482C203.555 132.562 203.839 132.623 204.126 132.663C204.406 132.705 204.688 132.729 204.97 132.736C206.646 132.775 208.278 132.21 209.562 131.147C210.845 130.084 211.692 128.595 211.942 126.96C212.192 125.325 211.829 123.657 210.921 122.267C210.013 120.877 208.622 119.862 207.01 119.412H207.015ZM182.074 122.22C181.554 122.497 180.984 122.673 180.396 122.737C179.806 122.804 179.207 122.757 178.635 122.598L174.708 121.522L170.775 120.431C169.621 120.11 168.644 119.349 168.058 118.317C167.472 117.285 167.325 116.066 167.651 114.927C167.976 113.788 168.747 112.824 169.793 112.246C170.839 111.668 172.075 111.523 173.229 111.844L177.161 112.936L181.088 114.027C181.662 114.184 182.198 114.451 182.666 114.813C183.134 115.175 183.526 115.624 183.818 116.135C184.11 116.646 184.297 117.209 184.369 117.792C184.44 118.375 184.394 118.965 184.234 119.531C184.075 120.095 183.802 120.623 183.432 121.082C183.061 121.547 182.599 121.934 182.074 122.22ZM209.5 127.16C209.177 128.301 208.408 129.269 207.362 129.851C206.316 130.433 205.078 130.581 203.922 130.263L200.875 129.389L197.803 128.536C197.231 128.379 196.697 128.112 196.23 127.75C195.764 127.387 195.375 126.937 195.087 126.425C194.794 125.915 194.606 125.353 194.537 124.77C194.469 124.187 194.517 123.597 194.678 123.032C194.837 122.468 195.108 121.94 195.475 121.481C195.846 121.02 196.303 120.636 196.823 120.348C197.868 119.771 199.103 119.625 200.257 119.944L203.329 120.798L206.402 121.651C206.975 121.809 207.511 122.077 207.979 122.439C208.448 122.801 208.839 123.251 209.132 123.762C209.424 124.274 209.611 124.837 209.682 125.42C209.753 126.003 209.708 126.594 209.547 127.16H209.5Z" fill="#84A1E5" stroke="#070707" stroke-miterlimit="10" stroke-linecap="round"/>
<path d="M125.658 306.917C125.143 306.326 124.557 305.795 123.911 305.334C122.957 304.633 121.868 304.116 120.705 303.813C118.551 303.311 116.28 303.55 114.294 304.487C113.031 305.056 111.867 305.805 110.843 306.709L110.571 306.953L110.293 307.196L97.0439 318.524L83.7787 329.861L83.3086 330.242L82.8331 330.617C81.8332 331.42 81.0126 332.406 80.4199 333.515C79.8272 334.624 79.4743 335.834 79.382 337.075C79.2633 338.283 79.4124 339.5 79.8196 340.65C80.2268 341.8 80.8831 342.856 81.7463 343.75C82.6094 344.644 83.6603 345.356 84.8311 345.842C86.0019 346.327 87.2668 346.573 88.5441 346.566C89.8551 346.592 91.1583 346.368 92.3769 345.908C93.5954 345.448 94.7045 344.761 95.6388 343.888L96.0769 343.467L96.5203 343.056L109.625 331.617L122.725 320.172C123.838 319.177 124.809 318.046 125.61 316.809C126.838 314.897 127.843 312.36 127.111 309.707C126.987 309.268 126.823 308.84 126.619 308.429C126.357 307.894 126.034 307.387 125.658 306.917Z" fill="#ECE7E1" stroke="black" stroke-miterlimit="10" stroke-linecap="round"/>
<path d="M181.089 205.243C181.008 204.551 180.942 203.837 180.899 203.093C180.855 202.349 180.834 201.578 180.839 200.782C180.848 198.511 181.067 196.245 181.492 194.011C181.844 192.145 182.333 190.306 182.956 188.505C182.126 188.248 181.264 188.095 180.393 188.05C179.266 187.984 178.141 188.196 177.127 188.666C174.884 189.741 173.431 192.191 172.99 194.869C172.549 197.546 173.12 200.462 174.922 202.452C175.841 203.44 177.01 204.189 178.319 204.628C179.212 204.942 180.142 205.149 181.089 205.243Z" fill="#D87D61" stroke="black" stroke-miterlimit="10" stroke-linecap="round"/>
<path d="M151.367 321.017L144.531 314.881L137.695 308.74C135.733 307.331 133.423 306.423 130.987 306.101C127.067 305.635 122.006 306.874 117.511 313.712L108.488 328.442L99.4601 343.172C98.3054 345.198 97.9961 347.562 98.5938 349.794C98.8722 350.915 99.3854 351.971 100.103 352.899C100.82 353.827 101.727 354.608 102.769 355.196C103.811 355.784 104.967 356.167 106.169 356.322C107.37 356.476 108.592 356.399 109.761 356.096C111.017 355.796 112.196 355.26 113.229 354.519C114.261 353.777 115.127 352.846 115.773 351.781L121.631 343.252L127.49 334.723L139.428 327.85L151.367 321.017Z" fill="#ECE7E1" stroke="black" stroke-miterlimit="10" stroke-linecap="round"/>
<path d="M79.3424 261.773C79.3425 262.91 78.8868 264.011 78.0529 264.89C77.219 265.769 76.0584 266.371 74.7689 266.594C73.4793 266.816 72.1403 266.645 70.9801 266.11C69.8198 265.575 68.9099 264.709 68.4053 263.659C67.9008 262.61 67.8327 261.441 68.2127 260.353C68.5927 259.264 69.3973 258.324 70.4895 257.69C71.5817 257.057 72.894 256.771 74.2029 256.88C75.5119 256.99 76.7365 257.488 77.6683 258.29C78.2004 258.746 78.6223 259.288 78.9097 259.886C79.1971 260.484 79.3441 261.125 79.3424 261.773Z" fill="#040400" stroke="#040400" stroke-miterlimit="10"/>
<path d="M126.095 335.508L129.251 331.207L132.413 326.905" stroke="black" stroke-miterlimit="10" stroke-linecap="round"/>
<path d="M358.595 257.472C358.595 256.962 357.256 256.498 355.036 256.136C352.101 255.711 349.142 255.474 346.176 255.427C346.134 252.536 345.825 249.654 345.254 246.818C344.769 244.65 344.133 243.339 343.435 243.339C342.736 243.339 342.095 244.65 341.611 246.818C341.041 249.655 340.733 252.536 340.688 255.427C337.722 255.474 334.763 255.711 331.829 256.136C329.608 256.498 328.269 256.962 328.269 257.472C328.269 257.982 329.608 258.446 331.829 258.808C334.763 259.233 337.722 259.47 340.688 259.517C340.733 262.408 341.041 265.289 341.611 268.126C342.095 270.294 342.736 271.604 343.435 271.604C344.133 271.604 344.769 270.294 345.254 268.126C345.825 265.289 346.134 262.408 346.176 259.517C349.142 259.47 352.101 259.233 355.036 258.808C357.256 258.446 358.595 257.982 358.595 257.472Z" fill="url(#paint0_linear_708_2676)" stroke="black" stroke-miterlimit="10" stroke-linecap="round"/>
<path d="M71.7609 114.306C71.7609 113.686 70.0846 113.116 67.3087 112.678C63.6421 112.159 59.9434 111.872 56.237 111.818C56.1799 108.299 55.794 104.791 55.0839 101.337C54.4753 98.6967 53.6799 97.0991 52.8097 97.0991C51.9396 97.0991 51.1388 98.6967 50.5303 101.337C49.8201 104.791 49.4342 108.299 49.3772 111.818C45.6708 111.872 41.9721 112.159 38.3055 112.678C35.5295 113.116 33.8533 113.696 33.8533 114.306C33.8533 114.917 35.5295 115.492 38.3055 115.935C41.9602 116.447 45.6461 116.733 49.3398 116.789C49.3965 120.309 49.7824 123.816 50.4929 127.27C51.1015 129.911 51.8969 131.509 52.7724 131.509C53.6479 131.509 54.4379 129.911 55.0465 127.27C55.757 123.816 56.1429 120.309 56.1996 116.789C59.9058 116.735 63.6042 116.449 67.2713 115.935C70.0579 115.492 71.7609 114.922 71.7609 114.306Z" fill="url(#paint1_linear_708_2676)" stroke="black" stroke-miterlimit="10" stroke-linecap="round"/>
<path d="M370.836 74.2106C365.86 75.2176 362.801 76.2649 360.725 78.2789C358.649 80.2929 357.572 83.2736 356.542 88.1123C356.521 88.2202 356.463 88.3178 356.376 88.388C356.29 88.4583 356.181 88.4968 356.068 88.4968C355.955 88.4968 355.846 88.4583 355.759 88.388C355.673 88.3178 355.614 88.2202 355.594 88.1123C354.559 83.2736 353.482 80.2929 351.411 78.2789C349.34 76.2649 346.281 75.2075 341.3 74.2106C341.189 74.1909 341.089 74.1341 341.017 74.0499C340.944 73.9657 340.905 73.8595 340.905 73.7499C340.905 73.6402 340.944 73.534 341.017 73.4498C341.089 73.3656 341.189 73.3088 341.3 73.2892C346.281 72.2821 349.34 71.2349 351.411 69.2208C353.482 67.2068 354.569 64.2261 355.594 59.3874C355.614 59.2795 355.673 59.1819 355.759 59.1117C355.846 59.0414 355.955 59.0029 356.068 59.0029C356.181 59.0029 356.29 59.0414 356.376 59.1117C356.463 59.1819 356.521 59.2795 356.542 59.3874C357.577 64.2261 358.654 67.2018 360.725 69.2208C362.796 71.2399 365.86 72.2922 370.836 73.2892C370.947 73.3088 371.047 73.3656 371.119 73.4498C371.191 73.534 371.231 73.6402 371.231 73.7499C371.231 73.8595 371.191 73.9657 371.119 74.0499C371.047 74.1341 370.947 74.1909 370.836 74.2106Z" fill="url(#paint2_linear_708_2676)" stroke="black" stroke-miterlimit="10" stroke-linecap="round"/>
<path d="M39.8773 142.33C37.0832 142.956 35.3381 143.633 34.1378 144.884C32.9375 146.135 32.2868 147.953 31.6867 150.865C31.6696 150.951 31.6244 151.029 31.5587 151.085C31.493 151.141 31.4108 151.171 31.3261 151.171C31.2413 151.171 31.1592 151.141 31.0935 151.085C31.0278 151.029 30.9825 150.951 30.9655 150.865C30.3653 147.953 29.7147 146.135 28.5143 144.884C27.314 143.633 25.569 142.956 22.7749 142.33C22.6919 142.312 22.6173 142.265 22.5637 142.197C22.5102 142.128 22.481 142.043 22.481 141.954C22.481 141.866 22.5102 141.78 22.5637 141.712C22.6173 141.644 22.6919 141.596 22.7749 141.579C25.569 140.953 27.314 140.275 28.5143 139.024C29.7147 137.774 30.3653 135.955 30.9655 133.044C30.9825 132.957 31.0278 132.88 31.0935 132.824C31.1592 132.768 31.2413 132.738 31.3261 132.738C31.4108 132.738 31.493 132.768 31.5587 132.824C31.6244 132.88 31.6696 132.957 31.6867 133.044C32.2868 135.955 32.9375 137.774 34.1378 139.024C35.3381 140.275 37.0832 140.953 39.8773 141.579C39.9603 141.596 40.0348 141.644 40.0884 141.712C40.1419 141.78 40.1712 141.866 40.1712 141.954C40.1712 142.043 40.1419 142.128 40.0884 142.197C40.0348 142.265 39.9603 142.312 39.8773 142.33Z" fill="url(#paint3_linear_708_2676)" stroke="black" stroke-miterlimit="10" stroke-linecap="round"/>
<path d="M359.235 287.58C357.919 287.582 356.643 287.091 355.625 286.19C354.606 285.289 353.909 284.034 353.651 282.639C353.393 281.244 353.591 279.796 354.211 278.541C354.831 277.286 355.835 276.303 357.051 275.759C358.267 275.215 359.62 275.143 360.88 275.556C362.139 275.97 363.227 276.843 363.957 278.026C364.688 279.209 365.016 280.63 364.885 282.045C364.755 283.46 364.174 284.783 363.242 285.787C362.178 286.933 360.737 287.578 359.235 287.58ZM359.235 278.682C358.637 278.68 358.056 278.904 357.593 279.313C357.13 279.723 356.812 280.294 356.695 280.928C356.578 281.563 356.668 282.221 356.95 282.792C357.233 283.362 357.69 283.809 358.243 284.056C358.796 284.303 359.412 284.335 359.984 284.146C360.557 283.957 361.051 283.559 361.382 283.021C361.714 282.482 361.862 281.835 361.801 281.192C361.74 280.548 361.475 279.947 361.05 279.492C360.812 279.234 360.529 279.03 360.217 278.891C359.906 278.752 359.572 278.681 359.235 278.682Z" fill="url(#paint4_linear_708_2676)" stroke="black" stroke-miterlimit="10" stroke-linecap="round"/>
<path d="M124.832 271.604C125.217 271.72 125.623 271.835 126.059 271.943C126.495 272.051 126.946 272.159 127.422 272.26C128.103 272.401 128.76 272.516 129.381 272.621C130.002 272.725 130.598 272.783 131.149 272.833" fill="#ECE7E1"/>
<path d="M124.832 271.604C125.217 271.72 125.623 271.835 126.059 271.943C126.495 272.051 126.946 272.159 127.422 272.26C128.103 272.401 128.76 272.516 129.381 272.621C130.002 272.725 130.598 272.783 131.149 272.833" stroke="black" stroke-miterlimit="10" stroke-linecap="round"/>
<path d="M298.98 244.568C302.436 234.617 305.277 226.446 307.251 220.767L310.336 211.885L314.04 216.485C317.215 220.425 323.036 227.651 333.619 240.794L337.264 210.115L340.905 179.436C340.591 182.847 339.795 186.198 338.54 189.393C336.287 195.336 332.376 200.538 327.253 204.405C324.792 206.26 322.095 207.792 319.231 208.963C314.347 210.991 309.008 211.732 303.743 211.112C295.62 210.126 289.609 206.077 285.545 202.106C282.945 199.586 280.736 196.705 278.989 193.556C281.889 201.021 284.796 208.482 287.71 215.94C290.623 223.398 293.553 230.852 296.499 238.303C296.816 239.102 297.277 240.265 297.732 241.417C298.187 242.57 298.647 243.764 298.98 244.568Z" fill="#DBCAF4" stroke="black" stroke-miterlimit="10" stroke-linecap="round"/>
<path d="M364.913 313.387L357.963 344.11L351.014 374.833" fill="#DBCAF4"/>
<path d="M364.913 313.387L357.963 344.11L351.014 374.833" stroke="black" stroke-miterlimit="10" stroke-linecap="round"/>
<path d="M186.747 93.4124C186.893 93.3144 187.038 93.2086 187.189 93.0949C187.34 92.9812 187.48 92.8675 187.631 92.7421C187.978 92.4465 188.299 92.1363 188.592 91.8131C188.842 91.5359 189.07 91.2493 189.274 90.9546" stroke="#070707" stroke-miterlimit="10" stroke-linecap="round"/>
<path d="M54.3332 245.56C53.8772 244.35 53.5326 243.037 53.1934 241.792C52.9094 240.642 52.5318 239.516 52.0641 238.424C51.2424 236.664 50.2669 234.511 48.931 232.828C47.595 231.144 45.8985 229.924 43.6295 230.037C43.6295 230.037 42.6699 230.084 41.9489 231.469C41.2279 232.854 40.7508 235.588 41.6997 240.891C42.3363 244.423 43.3729 247.876 44.7905 251.188C46.2117 254.494 47.9888 257.645 50.092 260.589L55.579 268.312L61.066 276.034C61.6402 276.831 62.1053 277.696 62.4497 278.609C62.798 279.518 63.0087 280.472 63.0753 281.44C63.2416 282.775 62.9269 284.125 62.1847 285.261C61.3682 286.347 59.9209 287.109 57.4557 287.124C58.6681 288.462 59.7243 289.927 60.6048 291.49C61.9143 293.895 62.7254 296.747 60.6048 298.539C59.7299 299.353 58.5768 299.826 57.3656 299.867C55.3298 299.929 52.4723 298.796 49.1642 294.008C49.1642 294.008 48.0403 296.706 45.7766 297.828C43.5129 298.951 40.1146 298.492 35.5606 292.165C35.1209 292.911 34.4643 293.514 33.6732 293.9C32.8821 294.285 31.9914 294.436 31.1127 294.332C28.0644 293.946 23.3672 290.61 16.7669 278.815C15.8515 277.167 14.9114 275.532 13.9465 273.908C12.987 272.286 12.0115 270.665 11.036 269.053C7.88694 263.858 3.08381 254.637 1.51987 244.34C-0.0440655 234.043 1.56758 222.66 11.2481 213.197C13.3605 211.126 15.7932 209.389 18.4581 208.048C21.1156 206.704 23.9957 205.824 26.967 205.448C31.7199 204.836 36.5531 205.604 40.8568 207.657C45.8879 210.035 51.1311 214.468 55.9978 222.17C57.8399 225.123 59.4696 228.195 60.8752 231.366C63.1442 236.514 65.0793 242.754 63.738 247.146C63.4259 248.183 62.7411 249.076 61.8083 249.664C61.3518 249.955 60.8403 250.156 60.3034 250.254C59.7664 250.352 59.2147 250.346 58.6804 250.235L58.5054 250.194L58.3305 250.142C57.3421 249.845 56.4744 249.255 55.8494 248.454C55.185 247.576 54.6729 246.599 54.3332 245.56Z" fill="#F2B3C1" stroke="black" stroke-miterlimit="10" stroke-linecap="round"/>
<path d="M36.3805 255.629C38.1466 259.035 40.0821 262.553 42.1972 266.151C44.3124 269.748 46.6278 273.424 49.1332 277.159C50.3824 279.007 51.6282 280.799 52.8707 282.534C54.1131 284.269 55.3606 285.951 56.5979 287.58" stroke="black" stroke-miterlimit="10" stroke-linecap="round"/>
<path d="M27.5353 261.773C27.5353 261.773 31.2992 267.974 35.8857 275.072C40.4723 282.17 45.8277 290.161 49.0163 293.725" stroke="black" stroke-miterlimit="10" stroke-linecap="round"/>
<path d="M19.9539 266.689L27.5354 279.592L35.1169 292.496" stroke="black" stroke-miterlimit="10" stroke-linecap="round"/>
<path d="M91.9783 140.111C93.9919 143.842 95.9686 147.812 97.8557 152.023C99.7428 156.234 101.546 160.71 103.206 165.381C108.708 180.97 112.026 197.206 113.069 213.651C113.88 226.428 113.427 239.25 111.714 251.942" stroke="black" stroke-miterlimit="10" stroke-linecap="round"/>
<path d="M139.863 126.593C139.488 127.321 139.201 128.086 139.009 128.873C138.716 130.063 138.654 131.293 138.826 132.503C139.128 134.508 140.052 136.387 141.486 137.909C142.251 138.743 143.139 139.472 144.124 140.074C143.837 140.978 143.692 141.916 143.694 142.859C143.67 144.558 144.175 146.228 145.148 147.666C146.122 149.103 147.522 150.247 149.18 150.96C150.765 151.649 152.514 151.944 154.258 151.815C154.261 152.804 154.432 153.786 154.763 154.725C155.392 156.66 156.74 158.322 158.567 159.415C159.961 160.236 161.563 160.698 163.211 160.755C164.859 160.813 166.493 160.462 167.948 159.74C168.213 160.642 168.558 161.522 168.98 162.371C169.546 163.505 170.249 164.575 171.076 165.561C171.554 166.132 172.075 166.672 172.634 167.176C173.102 167.602 173.595 168.002 174.111 168.376" fill="#F6C34C"/>
<path d="M139.863 126.593C139.488 127.321 139.201 128.086 139.009 128.873C138.716 130.063 138.654 131.293 138.826 132.503C139.128 134.508 140.052 136.387 141.486 137.909C142.251 138.743 143.139 139.472 144.124 140.074C143.837 140.978 143.692 141.916 143.694 142.859C143.67 144.558 144.175 146.228 145.148 147.666C146.122 149.103 147.522 150.247 149.18 150.96C150.765 151.649 152.514 151.944 154.258 151.815C154.261 152.804 154.432 153.786 154.763 154.725C155.392 156.66 156.74 158.322 158.567 159.415C159.961 160.236 161.563 160.698 163.211 160.755C164.859 160.813 166.493 160.462 167.948 159.74C168.213 160.642 168.558 161.522 168.98 162.371C169.546 163.505 170.249 164.575 171.076 165.561C171.554 166.132 172.075 166.672 172.634 167.176C173.102 167.602 173.595 168.002 174.111 168.376" stroke="#070707" stroke-miterlimit="10" stroke-linecap="round"/>
<path d="M84.3967 304.785L95.1398 292.496L105.878 280.207" fill="#F6C34C"/>
<path d="M84.3967 304.785L95.1398 292.496L105.878 280.207" stroke="#070707" stroke-miterlimit="10" stroke-linecap="round"/>
<path d="M175.375 141.34C175.781 141.996 176.373 142.564 177.102 142.997C178.305 143.713 180.199 144.21 182.957 143.32" stroke="black" stroke-miterlimit="10" stroke-linecap="round"/>
<path d="M299.207 205.243C299.83 204.018 300.703 202.952 301.764 202.118C302.854 201.257 304.127 200.684 305.475 200.448C306.823 200.213 308.205 200.323 309.504 200.767C310.838 201.212 312.066 201.95 313.106 202.931" stroke="black" stroke-miterlimit="10" stroke-linecap="round"/>
<path d="M108.405 346.568C107.892 347.207 107.447 347.911 107.079 348.664C106.507 349.82 106.129 351.082 105.965 352.389C105.873 353.146 105.853 353.911 105.908 354.672C105.949 355.254 106.032 355.832 106.155 356.399" stroke="black" stroke-miterlimit="10" stroke-linecap="round"/>
<path d="M102.087 344.11C101.474 344.917 100.969 345.823 100.587 346.797C99.6725 349.024 99.3587 351.511 99.6856 353.941" stroke="black" stroke-miterlimit="10" stroke-linecap="round"/>
<path d="M84.3967 345.339C84.4816 344.882 84.6054 344.431 84.7671 343.991C84.9587 343.454 85.203 342.933 85.4973 342.435C86.1858 341.262 87.1305 340.225 88.2753 339.384C89.0246 338.829 89.8431 338.353 90.7147 337.966" stroke="black" stroke-miterlimit="10" stroke-linecap="round"/>
<path d="M80.606 341.652C80.7704 340.932 80.9928 340.227 81.2707 339.546C81.6544 338.6 82.1404 337.704 82.7191 336.876C83.3734 335.942 84.1421 335.104 85.0053 334.382C85.6056 333.878 86.2477 333.433 86.9239 333.05" stroke="black" stroke-miterlimit="10" stroke-linecap="round"/>
<defs>
<linearGradient id="paint0_linear_708_2676" x1="343.435" y1="243.339" x2="343.435" y2="271.604" gradientUnits="userSpaceOnUse">
<stop offset="0.26" stop-color="#FEC2D9"/>
<stop offset="0.75" stop-color="#A4C2FF"/>
</linearGradient>
<linearGradient id="paint1_linear_708_2676" x1="52.7831" y1="97.0991" x2="52.7831" y2="131.509" gradientUnits="userSpaceOnUse">
<stop offset="0.31" stop-color="#FEC2D9"/>
<stop offset="0.75" stop-color="#A4C2FF"/>
</linearGradient>
<linearGradient id="paint2_linear_708_2676" x1="356.071" y1="59.0098" x2="356.071" y2="88.4899" gradientUnits="userSpaceOnUse">
<stop offset="0.31" stop-color="#FEC2D9"/>
<stop offset="0.88" stop-color="#A4C2FF"/>
</linearGradient>
<linearGradient id="paint3_linear_708_2676" x1="31.3235" y1="132.739" x2="31.3235" y2="151.17" gradientUnits="userSpaceOnUse">
<stop offset="0.31" stop-color="#FEC2D9"/>
<stop offset="0.75" stop-color="#A4C2FF"/>
</linearGradient>
<linearGradient id="paint4_linear_708_2676" x1="359.235" y1="275.33" x2="359.235" y2="287.58" gradientUnits="userSpaceOnUse">
<stop offset="0.22" stop-color="#FEC2D9"/>
<stop offset="0.75" stop-color="#A4C2FF"/>
</linearGradient>
</defs>
</svg>
