<svg width="224" height="260" viewBox="0 0 224 260" fill="none" xmlns="http://www.w3.org/2000/svg">
<mask id="mask0_785_4745" style="mask-type:alpha" maskUnits="userSpaceOnUse" x="0" y="0" width="224" height="260">
<rect width="224" height="260" fill="#D9D9D9"/>
</mask>
<g mask="url(#mask0_785_4745)">
<path d="M-42.6544 136.221C-43.5669 172.351 -23.0434 209.118 12.1389 228.642C47.3212 248.166 96.33 248.284 129.626 226.683C162.685 205.241 175.965 168.307 187.347 133.85C194.249 112.913 201.14 90.3923 193.018 69.7197C182.306 42.4521 147.486 26.7206 114.337 25.4367C82.8553 24.2122 36.4875 32.2617 8.6103 45.534C-24.1483 61.1036 -41.8825 105.902 -42.6544 136.221Z" fill="#FEB941"/>
<path fill-rule="evenodd" clip-rule="evenodd" d="M-36.6618 169.409C-45.141 135.197 -34.7917 98.4087 -11.463 70.0101L-11.4628 70.0099C22.9171 28.203 79.1179 5.97284 137.721 9.44517C157.401 10.5932 177.347 15.3841 192.998 25.9157C208.645 36.4443 219.404 53.3418 217.882 70.5089L217.882 70.5093C217.14 78.7929 213.71 86.6253 210.328 94.3479C209.576 96.0653 208.826 97.7773 208.109 99.4876C203.517 110.477 200.134 121.797 196.992 133.203C196.196 136.094 195.415 138.992 194.633 141.891C192.333 150.422 190.03 158.968 187.323 167.406C180.067 190.021 169.332 212.661 149.89 229.084L149.89 229.084C121.042 253.426 74.9892 260.016 37.4241 247.183C-0.145138 234.348 -28.1834 203.618 -36.6618 169.409ZM-10.7201 70.4926C-33.8867 98.694 -44.156 135.22 -35.7413 169.172C-27.3257 203.127 0.518729 233.642 37.8047 246.38C75.0947 259.119 120.745 252.547 149.271 228.475C168.509 212.225 179.18 189.778 186.419 167.216C189.119 158.798 191.416 150.28 193.714 141.754C194.497 138.851 195.279 135.948 196.078 133.047C199.222 121.632 202.616 110.27 207.23 99.2294L207.23 99.2289C207.959 97.4905 208.717 95.7594 209.474 94.0303C212.852 86.3136 216.213 78.6335 216.942 70.4943C218.433 53.6876 207.886 37.03 192.406 26.614C176.931 16.2012 157.169 11.44 137.6 10.2986L137.6 10.2985C79.2908 6.84359 23.4331 28.9614 -10.7201 70.4926Z" fill="#C3682A"/>
<path d="M126.321 87.941C124.768 93.9035 125.508 100.135 128.427 105.664C131.345 111.193 136.277 115.708 142.453 118.505C150.898 122.101 161.974 121.78 169.076 116.267C174.15 112.321 176.64 106.281 176.921 100.351C177.458 89.5946 168.929 75.0533 157.722 69.8925C144.607 63.8672 129.389 77.2902 126.313 87.9232" fill="#277380"/>
</g>
</svg>
